<svg xmlns="http://www.w3.org/2000/svg" version="1.1" viewBox="461.5032679738562 70.688 463.00653594771245 463.23199999999997" style="max-height: 500px" width="463.00653594771245" height="463.23199999999997">
<path transform="translate(0,0)" fill="#FEFEFE" d="M0 0 C455.4 0 910.8 0 1380 0 C1380 248.16 1380 496.32 1380 752 C924.6 752 469.2 752 0 752 C0 503.84 0 255.68 0 0 Z"/>
<path transform="translate(477,86)" fill="#205983" d="M0 0 C30.69 0 61.38 0 93 0 C93 19.47 93 38.94 93 59 C119.07 59 145.14 59 172 59 C172 39.53 172 20.06 172 0 C203.02 0 234.04 0 266 0 C266 19.47 266 38.94 266 59 C291.74 59 317.48 59 344 59 C344 39.53 344 20.06 344 0 C375.02 0 406.04 0 438 0 C438 144.54 438 289.08 438 438 C388.17 438 338.34 438 287 438 C286.7525 420.79875 286.505 403.5975 286.25 385.875 C286.08612793 377.76526611 286.08612793 377.76526611 285.91894531 369.49169922 C285.86474609 362.82641602 285.86474609 362.82641602 285.85467529 359.69387817 C285.83639524 357.53252406 285.79449396 355.371283 285.73309326 353.21072388 C285.16528575 332.15557582 285.16528575 332.15557582 292.82324219 323.59033203 C295.84148259 320.43649997 298.89829211 317.65344913 303 316 C303.8353125 316.85271484 303.8353125 316.85271484 304.6875 317.72265625 C305.450625 318.49480469 306.21375 319.26695312 307 320.0625 C308.11375 321.19365234 308.11375 321.19365234 309.25 322.34765625 C312.05854158 325.05646269 314.96596326 327.60733942 317.91210938 330.16381836 C321.26603575 333.11340679 324.50465663 336.18204186 327.75 339.25 C329.1428006 340.56035152 330.53603424 341.87024289 331.9296875 343.1796875 C332.61256836 343.82131836 333.29544922 344.46294922 333.99902344 345.12402344 C336.94609758 347.88699534 339.90470426 350.63701789 342.875 353.375 C343.82117188 354.24898438 344.76734375 355.12296875 345.7421875 356.0234375 C347.83308286 358.02181596 347.83308286 358.02181596 350 359 C349.97172119 357.74501709 349.94344238 356.49003418 349.91430664 355.19702148 C349.65545897 337.84075942 350.92328625 320.65761488 352.25952148 303.37030029 C352.78702821 296.53026029 353.29926128 289.6890699 353.80859375 282.84765625 C353.89135118 281.74449003 353.89135118 281.74449003 353.97578049 280.61903763 C354.73222113 270.4914596 355.28342969 260.37317062 355.63575745 250.22283936 C355.90172375 243.10875171 356.49755183 236.06497315 357.22434998 228.98468018 C358.33139666 218.07391379 358.956076 207.13221713 359.625 196.1875 C359.76010355 194.01886068 359.89551877 191.85024075 360.03125 189.68164062 C360.35774139 184.45464251 360.68007914 179.22740421 361 174 C322.13206326 179.72148764 283.26504808 185.44703148 244.4375 191.4375 C243.16303009 191.63406189 241.88856018 191.83062378 240.57546997 192.03314209 C236.88221236 192.60327509 233.18910851 193.17438993 229.49609375 193.74609375 C228.32931595 193.92664307 227.16253815 194.10719238 225.96040344 194.29321289 C220.12232384 195.19859306 214.28552126 196.11144149 208.45073223 197.03776836 C205.48999528 197.50765503 202.52892828 197.97544468 199.56785774 198.44322395 C198.14202927 198.66917588 196.71637984 198.89626086 195.29092216 199.12454033 C193.31295312 199.44129937 191.33434528 199.7540617 189.35571289 200.06665039 C188.22339737 200.24708389 187.09108185 200.4275174 185.92445374 200.61341858 C183 201 183 201 179 201 C183.09161983 205.14680545 187.30746158 209.14657976 191.5625 213.125 C192.26632812 213.78371094 192.97015625 214.44242188 193.6953125 215.12109375 C204.25355747 224.98950784 214.84847361 234.79999073 226 244 C224.5945211 248.3442075 222.54792091 252.0767925 219 255 C216.10687283 256.00156558 213.22625049 256.2346856 210.1875 256.5 C192.59320906 258.68891737 175.29430963 265.67034465 164 280 C155.45778113 292.70341005 151.38860201 305.11112756 151.45410156 320.5012207 C151.44370724 321.80128398 151.43331291 323.10134726 151.42260361 324.44080639 C151.39521561 327.91464485 151.39108295 331.38812221 151.39224243 334.86205292 C151.38967488 338.13806393 151.36550123 341.41389094 151.34326172 344.68981934 C151.29078936 354.23061924 151.27241719 363.77158213 151.25 373.3125 C151.1675 394.659375 151.085 416.00625 151 438 C101.17 438 51.34 438 0 438 C0 293.46 0 148.92 0 0 Z"/>
<path transform="translate(821,86)" fill="#14456D" d="M0 0 C31.02 0 62.04 0 94 0 C94 144.54 94 289.08 94 438 C44.17 438 -5.66 438 -57 438 C-57.2475 420.79875 -57.495 403.5975 -57.75 385.875 C-57.85924805 380.46851074 -57.96849609 375.06202148 -58.08105469 369.49169922 C-58.13525391 362.82641602 -58.13525391 362.82641602 -58.14532471 359.69387817 C-58.16360476 357.53252406 -58.20550604 355.371283 -58.26690674 353.21072388 C-58.83471425 332.15557582 -58.83471425 332.15557582 -51.17675781 323.59033203 C-48.15851741 320.43649997 -45.10170789 317.65344913 -41 316 C-40.443125 316.56847656 -39.88625 317.13695312 -39.3125 317.72265625 C-38.549375 318.49480469 -37.78625 319.26695312 -37 320.0625 C-35.88625 321.19365234 -35.88625 321.19365234 -34.75 322.34765625 C-31.94145842 325.05646269 -29.03403674 327.60733942 -26.08789062 330.16381836 C-22.73396425 333.11340679 -19.49534337 336.18204186 -16.25 339.25 C-14.8571994 340.56035152 -13.46396576 341.87024289 -12.0703125 343.1796875 C-11.38743164 343.82131836 -10.70455078 344.46294922 -10.00097656 345.12402344 C-7.05390242 347.88699534 -4.09529574 350.63701789 -1.125 353.375 C-0.17882812 354.24898438 0.76734375 355.12296875 1.7421875 356.0234375 C3.83308286 358.02181596 3.83308286 358.02181596 6 359 C5.97172119 357.74501709 5.94344238 356.49003418 5.91430664 355.19702148 C5.65545897 337.84075942 6.92328625 320.65761488 8.25952148 303.37030029 C8.78702821 296.53026029 9.29926128 289.6890699 9.80859375 282.84765625 C9.86376537 282.1122121 9.918937 281.37676796 9.97578049 280.61903763 C10.73222113 270.4914596 11.28342969 260.37317062 11.63575745 250.22283936 C11.90172375 243.10875171 12.49755183 236.06497315 13.22434998 228.98468018 C14.33139666 218.07391379 14.956076 207.13221713 15.625 196.1875 C15.76010355 194.01886068 15.89551877 191.85024075 16.03125 189.68164062 C16.35774139 184.45464251 16.68007914 179.22740421 17 174 C16.10861328 174.13631836 16.10861328 174.13631836 15.19921875 174.27539062 C12.46702952 174.68968059 9.73356516 175.09489221 7 175.5 C6.06542969 175.64308594 5.13085938 175.78617188 4.16796875 175.93359375 C-1.28940391 176.7350261 -6.48470461 177.15609327 -12 177 C-12 176.67 -12 176.34 -12 176 C-14.31 175.67 -16.62 175.34 -19 175 C-18.67 174.34 -18.34 173.68 -18 173 C-15.9375 172.375 -15.9375 172.375 -14 172 C-14.57556641 171.43490723 -15.15113281 170.86981445 -15.74414062 170.28759766 C-18.33458544 167.73857898 -20.91735937 165.18192444 -23.5 162.625 C-24.40621094 161.73554688 -25.31242188 160.84609375 -26.24609375 159.9296875 C-27.10332031 159.07890625 -27.96054687 158.228125 -28.84375 157.3515625 C-29.63974609 156.56604004 -30.43574219 155.78051758 -31.25585938 154.97119141 C-33 153 -33 153 -33 151 C-33.88993652 150.5968457 -33.88993652 150.5968457 -34.79785156 150.18554688 C-37.00540033 148.99709268 -38.46542882 147.79257611 -40.234375 146.03125 C-40.80800781 145.46019531 -41.38164063 144.88914063 -41.97265625 144.30078125 C-42.55917969 143.70652344 -43.14570312 143.11226562 -43.75 142.5 C-44.35199219 141.90574219 -44.95398438 141.31148437 -45.57421875 140.69921875 C-46.14269531 140.12816406 -46.71117187 139.55710938 -47.296875 138.96875 C-47.81604492 138.44732422 -48.33521484 137.92589844 -48.87011719 137.38867188 C-50 136 -50 136 -50 134 C-50.66 134 -51.32 134 -52 134 C-52 133.34 -52 132.68 -52 132 C-52.53625 131.79375 -53.0725 131.5875 -53.625 131.375 C-56.91978009 129.46749574 -59.59363628 126.95180616 -62 124 C-62 123.34 -62 122.68 -62 122 C-63.485 121.505 -63.485 121.505 -65 121 C-65 120.34 -65 119.68 -65 119 C-65.56203125 118.7628125 -66.1240625 118.525625 -66.703125 118.28125 C-69.51894042 116.71052303 -71.47955416 114.78528536 -73.75 112.5 C-74.94882812 111.30890625 -74.94882812 111.30890625 -76.171875 110.09375 C-78 108 -78 108 -78 106 C-78.66 106 -79.32 106 -80 106 C-81.34919532 104.34614767 -82.68133728 102.678298 -84 101 C-85.485 100.01 -85.485 100.01 -87 99 C-87 98.34 -87 97.68 -87 97 C-88.485 96.505 -88.485 96.505 -90 96 C-90 95.34 -90 94.68 -90 94 C-91.485 93.505 -91.485 93.505 -93 93 C-94.6484375 91.328125 -94.6484375 91.328125 -96.375 89.25 C-99.12311037 86.01115563 -101.9542024 82.96564503 -105 80 C-105.73347656 79.25492187 -106.46695313 78.50984375 -107.22265625 77.7421875 C-109.22862744 75.76160835 -111.2435787 73.84600139 -113.33203125 71.95703125 C-114.18764648 71.18262695 -114.18764648 71.18262695 -115.06054688 70.39257812 C-116.24511879 69.32421839 -117.43270834 68.25919655 -118.62304688 67.19726562 C-120.11915331 65.83794606 -121.56435779 64.42303042 -123 63 C-123 62.34 -123 61.68 -123 61 C-123.66 61 -124.32 61 -125 61 C-125 41.53 -125 22.06 -125 2 C-139.85 2 -154.7 2 -170 2 C-170 20.81 -170 39.62 -170 59 C-170.33 59 -170.66 59 -171 59 C-171 39.86 -171 20.72 -171 1 C-140.64 1 -110.28 1 -79 1 C-79 20.14 -79 39.28 -79 59 C-52.93 59 -26.86 59 0 59 C0 39.53 0 20.06 0 0 Z"/>
<path transform="translate(820,280)" fill="#F17C1F" d="M0 0 C-0.13989034 3.8544062 -0.28798006 7.70845629 -0.4375 11.5625 C-0.47681641 12.64853516 -0.51613281 13.73457031 -0.55664062 14.85351562 C-0.77244495 20.31502502 -1.21764805 25.58873232 -2 31 C-2.33847035 35.49600768 -2.56841992 39.99801731 -2.8125 44.5 C-2.98033628 47.49755417 -3.151784 50.49489459 -3.32421875 53.4921875 C-3.37271973 54.33639252 -3.4212207 55.18059753 -3.47119141 56.05038452 C-4.2531218 69.51784632 -5.12682876 82.97987118 -5.98577499 96.44259644 C-6.12543956 98.6318902 -6.26496491 100.8211928 -6.40444946 103.01049805 C-6.93520964 111.34040175 -7.46701279 119.67023847 -8 128 C-11.44401787 126.37915347 -13.60671518 124.57463755 -16.25 121.8125 C-19.62907357 118.35650443 -23.07110061 115.10361276 -26.75390625 111.9765625 C-28.56289136 110.3846556 -30.29821627 108.76198479 -32.02734375 107.0859375 C-32.82531372 106.32289307 -32.82531372 106.32289307 -33.6394043 105.54443359 C-34.69868135 104.52867087 -35.74868636 103.50313395 -36.78833008 102.46728516 C-39.50260581 99.7931364 -39.50260581 99.7931364 -43.06640625 98.8828125 C-45.82096036 100.47433265 -47.58700762 102.48700061 -49.6875 104.875 C-50.33996704 105.61157837 -50.33996704 105.61157837 -51.00561523 106.36303711 C-54.7158008 110.58469393 -58.25564508 114.94328609 -61.78515625 119.31640625 C-63.95632827 121.94708557 -66.20241357 124.47942424 -68.5 127 C-71.61458668 130.41739372 -74.5918662 133.9052235 -77.5 137.5 C-81.11149134 141.96420457 -84.88660694 146.23002114 -88.75390625 150.47265625 C-91.06187598 153.06962393 -93.25555863 155.73404013 -95.4375 158.4375 C-99.29708603 163.20996203 -103.37199991 167.73109109 -107.52734375 172.24609375 C-110.74709519 175.83207284 -113.75905176 179.56701492 -116.78515625 183.31640625 C-119.66598507 186.80693429 -122.70934403 190.13274068 -125.7578125 193.4765625 C-128.04515904 196.05082358 -130.21548271 198.69289489 -132.375 201.375 C-135.61952732 205.3882655 -138.98749324 209.22413126 -142.5 213 C-146.71855155 217.53936225 -150.69909075 222.22012973 -154.58984375 227.04296875 C-157.51426427 230.63095308 -160.49691131 234.16528756 -163.5 237.6875 C-164.02907959 238.31253418 -164.55815918 238.93756836 -165.10327148 239.58154297 C-166.37966895 241.07391399 -167.68690135 242.53981725 -169 244 C-169.33 244 -169.66 244 -170 244 C-170.20889356 230.4827077 -170.36862963 216.96580181 -170.46630955 203.44722176 C-170.51320118 197.16931104 -170.57676334 190.89250777 -170.67895508 184.61523438 C-170.77702927 178.55267393 -170.83061797 172.49117589 -170.85389519 166.42788315 C-170.87047438 164.11937619 -170.90285131 161.81092483 -170.95157051 159.50287247 C-171.36413662 139.14057483 -171.36413662 139.14057483 -165.60327148 132.69287109 C-164.10309582 131.42039922 -162.57272047 130.18163531 -161 129 C-159.48170209 127.18179139 -157.97690348 125.35199007 -156.5 123.5 C-152.88967558 119.03723787 -149.11572071 114.77280467 -145.25 110.53125 C-142.92137947 107.9115519 -140.70437053 105.2248469 -138.5 102.5 C-134.8873417 98.03435293 -131.11106455 93.76715385 -127.2421875 89.5234375 C-124.95484096 86.94917642 -122.78451729 84.30710511 -120.625 81.625 C-117.38042294 77.61167297 -114.01197956 73.77641383 -110.5 70 C-100.81312857 60.57952249 -100.81312857 60.57952249 -95 49 C-96.77827986 47.32260395 -98.55699897 45.64567681 -100.33618164 43.96923828 C-101.86975332 42.52416391 -103.40278859 41.07852007 -104.93530273 39.63232422 C-108.68304092 36.10068938 -112.44142498 32.58359217 -116.24609375 29.11328125 C-117.21458252 28.22709106 -117.21458252 28.22709106 -118.20263672 27.32299805 C-119.42540291 26.20665008 -120.65219129 25.094689 -121.88330078 23.98754883 C-123.29294936 22.69811415 -124.65232795 21.35407937 -126 20 C-126 19.34 -126 18.68 -126 18 C-125.09572266 17.86948242 -124.19144531 17.73896484 -123.25976562 17.60449219 C-119.00612139 16.98897499 -114.75291798 16.37051298 -110.5 15.75 C-109.72769043 15.63739838 -108.95538086 15.52479675 -108.15966797 15.40878296 C-98.41959308 13.98532108 -88.70097938 12.48516596 -79 10.8125 C-71.77409299 9.5697401 -64.59133591 8.5740256 -57.29614258 7.85864258 C-47.19803783 6.79965266 -37.20231446 4.93264105 -27.19921875 3.21875 C-24.79974497 2.81093302 -22.40000912 2.40465461 -20 2 C-18.8238916 1.80148437 -17.6477832 1.60296875 -16.43603516 1.3984375 C-10.8930471 0.49850404 -5.61766111 -0.26128656 0 0 Z"/>
<path transform="translate(911,326)" fill="#0C3454" d="M0 0 C0.99 0.66 1.98 1.32 3 2 C3.29446102 4.62557369 3.39126298 7.01563911 3.36076355 9.64346313 C3.36332682 10.44146469 3.3658901 11.23946625 3.36853105 12.06164968 C3.37349429 14.7504489 3.35693455 17.43869345 3.34057617 20.12744141 C3.33973045 22.04889411 3.34020397 23.97034779 3.34190369 25.89179993 C3.3427672 31.12093782 3.32508399 36.34987078 3.30418181 41.5789609 C3.28547415 47.0389074 3.28366925 52.49885818 3.28010559 57.95883179 C3.27076771 68.30381472 3.24613038 78.64870295 3.21605712 88.99364412 C3.17630968 102.96869261 3.16007232 116.94376685 3.14255047 130.91885757 C3.1143105 152.94597603 3.05455254 174.97289462 3 197 C-46.17 197 -95.34 197 -146 197 C-146.3403125 171.1671875 -146.3403125 171.1671875 -146.6875 144.8125 C-146.78764404 139.39690674 -146.88778809 133.98131348 -146.9909668 128.40161133 C-147.04064941 121.73181152 -147.04064941 121.73181152 -147.04988098 118.59843445 C-147.06665169 116.4337519 -147.10509032 114.26916512 -147.16133118 112.10514832 C-147.68182014 91.00273404 -147.68182014 91.00273404 -140.68286133 83.09643555 C-137.81665807 80.08895802 -134.87654483 77.6061076 -131 76 C-130.443125 76.56847656 -129.88625 77.13695312 -129.3125 77.72265625 C-125.06917959 82.01615106 -120.77558712 86.16250215 -116.1953125 90.09375 C-111.72222315 93.97785605 -107.37341666 98.00443368 -103 102 C-103.33 102.66 -103.66 103.32 -104 104 C-105.65 103.34 -107.3 102.68 -109 102 C-109 101.01 -109 100.02 -109 99 C-109.66 99 -110.32 99 -111 99 C-113.625 96.625 -113.625 96.625 -116 94 C-116 93.34 -116 92.68 -116 92 C-116.99 92 -117.98 92 -119 92 C-119 91.34 -119 90.68 -119 90 C-119.61875 90.185625 -120.2375 90.37125 -120.875 90.5625 C-123 91 -123 91 -125 90 C-125.40729228 87.67843403 -125.74438677 85.3431213 -126 83 C-130.05754203 82.43329081 -130.05754203 82.43329081 -134 83 C-137.39527903 86.10570299 -139.55252477 89.6575743 -141 94 C-141.99 94.495 -141.99 94.495 -143 95 C-142.98839844 95.66902344 -142.97679687 96.33804688 -142.96484375 97.02734375 C-142.88004978 106.05184469 -143.40288975 115.00069546 -144 124 C-143.34 124.33 -142.68 124.66 -142 125 C-142.16226074 125.86713623 -142.32452148 126.73427246 -142.49169922 127.62768555 C-143.35227384 133.69886396 -143.14239853 139.83907104 -143.1328125 145.95703125 C-143.13348697 147.30987058 -143.13445819 148.66270979 -143.13571167 150.01554871 C-143.13717939 152.83711919 -143.13506229 155.65865784 -143.13037109 158.48022461 C-143.12464687 162.0995703 -143.12797557 165.71884226 -143.13394356 169.33818531 C-143.13755089 172.12536682 -143.13641027 174.91253073 -143.13381577 177.69971275 C-143.13282402 179.6839897 -143.13586161 181.66826732 -143.13894653 183.65254211 C-143.13421829 185.45032356 -143.13421829 185.45032356 -143.12939453 187.28442383 C-143.12859894 188.34252762 -143.12780334 189.40063141 -143.12698364 190.49079895 C-143.16842806 192.99767339 -143.16842806 192.99767339 -142 195 C-126.16228305 195.07006802 -110.3246079 195.1229773 -94.48677444 195.15543652 C-87.13305735 195.17090821 -79.77943654 195.19200341 -72.42578125 195.22631836 C-66.01664502 195.25621158 -59.60757852 195.27557281 -53.19837451 195.28226548 C-49.80443615 195.28617791 -46.41069727 195.29537866 -43.01682281 195.31719017 C-39.22886706 195.33888796 -35.44132796 195.34197006 -31.65332031 195.34057617 C-30.52691132 195.351362 -29.40050232 195.36214783 -28.23995972 195.3732605 C-27.20793427 195.36913651 -26.17590881 195.36501251 -25.11260986 195.36076355 C-24.21662708 195.36352893 -23.3206443 195.36629431 -22.39751053 195.36914349 C-19.52558989 194.92695531 -18.27856729 193.73374714 -16 192 C-12.3125 192.375 -12.3125 192.375 -9 193 C-8.67 192.67 -8.34 192.34 -8 192 C-2.47058824 191.76470588 -2.47058824 191.76470588 0 193 C0 129.31 0 65.62 0 0 Z"/>
<path transform="translate(820,280)" fill="#DE8032" d="M0 0 C-0.13989034 3.8544062 -0.28798006 7.70845629 -0.4375 11.5625 C-0.47681641 12.64853516 -0.51613281 13.73457031 -0.55664062 14.85351562 C-0.77244495 20.31502502 -1.21764805 25.58873232 -2 31 C-2.33847035 35.49600768 -2.56841992 39.99801731 -2.8125 44.5 C-2.98033628 47.49755417 -3.151784 50.49489459 -3.32421875 53.4921875 C-3.37271973 54.33639252 -3.4212207 55.18059753 -3.47119141 56.05038452 C-4.2531218 69.51784632 -5.12682876 82.97987118 -5.98577499 96.44259644 C-6.12543956 98.6318902 -6.26496491 100.8211928 -6.40444946 103.01049805 C-6.93520964 111.34040175 -7.46701279 119.67023847 -8 128 C-11.55298576 126.33478579 -13.81825432 124.39032677 -16.5625 121.5625 C-17.32691406 120.78003906 -18.09132813 119.99757813 -18.87890625 119.19140625 C-19.57886719 118.46824219 -20.27882813 117.74507813 -21 117 C-21.99780462 115.99780943 -22.99680002 114.99678975 -24 114 C-19.99843068 115.33385644 -17.94567217 117.05432783 -15 120 C-13.02 120.495 -13.02 120.495 -11 121 C-11 106.15 -11 91.3 -11 76 C-10.01 75.67 -9.02 75.34 -8 75 C-8.01160156 74.31679688 -8.02320313 73.63359375 -8.03515625 72.9296875 C-8.10220047 65.43989036 -7.8875703 57.98216841 -7.5625 50.5 C-7.52326416 49.54464355 -7.48402832 48.58928711 -7.44360352 47.60498047 C-7.40162842 46.69377441 -7.35965332 45.78256836 -7.31640625 44.84375 C-7.27974854 44.03099609 -7.24309082 43.21824219 -7.20532227 42.38085938 C-7 40 -7 40 -6.51367188 37.65161133 C-5.8728721 34.34375662 -5.67243219 31.09340154 -5.46484375 27.73046875 C-5.42186661 27.04946609 -5.37888947 26.36846344 -5.33460999 25.66682434 C-5.1990514 23.50723423 -5.0682054 21.34738873 -4.9375 19.1875 C-4.846015 17.71677744 -4.75422137 16.24607405 -4.66210938 14.77539062 C-4.43783415 11.18380859 -4.21778235 7.59198226 -4 4 C-9.83409814 3.8486454 -15.11950066 3.97037687 -20.8125 5.4375 C-21.87082031 5.70433594 -22.92914062 5.97117187 -24.01953125 6.24609375 C-25.49486328 6.61927734 -25.49486328 6.61927734 -27 7 C-32.1708482 8.20405716 -37.33615389 8.35323193 -42.625 8.62109375 C-45.86556678 8.98490738 -48.01688117 9.77031743 -51 11 C-53.65196899 11.55117092 -56.26393131 12.02713428 -58.9375 12.4375 C-60.1426123 12.62807983 -60.1426123 12.62807983 -61.37207031 12.82250977 C-69.30165373 14.01282737 -77.2672227 14.70928125 -85.25 15.4375 C-94.62944266 16.29737934 -103.49278652 17.3838363 -112.48046875 20.23046875 C-115 21 -115 21 -118 21 C-117.566875 21.47050781 -117.13375 21.94101562 -116.6875 22.42578125 C-116.130625 23.04839844 -115.57375 23.67101562 -115 24.3125 C-114.443125 24.92738281 -113.88625 25.54226563 -113.3125 26.17578125 C-112 28 -112 28 -112 31 C-111.34 31 -110.68 31 -110 31 C-110 31.66 -110 32.32 -110 33 C-108.515 33.495 -108.515 33.495 -107 34 C-107.66 34.66 -108.32 35.32 -109 36 C-109.4125 35.57589844 -109.825 35.15179688 -110.25 34.71484375 C-114.10005239 30.80463429 -118.06335689 27.16395572 -122.30078125 23.67578125 C-124.1058908 21.89556976 -124.92753375 20.2741206 -126 18 C-125.09572266 17.86948242 -124.19144531 17.73896484 -123.25976562 17.60449219 C-119.00612139 16.98897499 -114.75291798 16.37051298 -110.5 15.75 C-109.72769043 15.63739838 -108.95538086 15.52479675 -108.15966797 15.40878296 C-98.41959308 13.98532108 -88.70097938 12.48516596 -79 10.8125 C-71.77409299 9.5697401 -64.59133591 8.5740256 -57.29614258 7.85864258 C-47.19803783 6.79965266 -37.20231446 4.93264105 -27.19921875 3.21875 C-24.79974497 2.81093302 -22.40000912 2.40465461 -20 2 C-18.2358374 1.70222656 -18.2358374 1.70222656 -16.43603516 1.3984375 C-10.8930471 0.49850404 -5.61766111 -0.26128656 0 0 Z"/>
<path transform="translate(681,380)" fill="#FEF2D5" d="M0 0 C0.99 0.33 1.98 0.66 3 1 C2.31035156 1.73863281 1.62070312 2.47726562 0.91015625 3.23828125 C-4.52024468 9.08872393 -9.7250517 15.03486157 -14.73046875 21.2578125 C-17.96330753 25.16392751 -21.38707675 28.87273828 -24.8359375 32.58984375 C-29.23271022 37.30853478 -29.23271022 37.30853478 -30.36076355 43.42926025 C-30.36488754 44.30983093 -30.36901154 45.19040161 -30.3732605 46.09765625 C-30.36247467 47.05575195 -30.35168884 48.01384766 -30.34057617 49.00097656 C-30.34101425 50.01593201 -30.34145233 51.03088745 -30.34190369 52.07659912 C-30.33981362 55.43147007 -30.31647176 58.78584134 -30.29296875 62.140625 C-30.28737359 64.46661099 -30.28310311 66.79260052 -30.28010559 69.11859131 C-30.26865063 75.24086262 -30.23917759 81.36292046 -30.20599365 87.48510742 C-30.17530696 93.73222974 -30.16160323 99.97938654 -30.14648438 106.2265625 C-30.11430873 118.4844688 -30.0631043 130.74221665 -30 143 C-29.43285278 142.34197388 -29.43285278 142.34197388 -28.85424805 141.6706543 C-27.13320999 139.67522109 -25.41037472 137.68134757 -23.6875 135.6875 C-23.09259766 134.99720703 -22.49769531 134.30691406 -21.88476562 133.59570312 C-21.01948242 132.59506836 -21.01948242 132.59506836 -20.13671875 131.57421875 C-19.60780029 130.96151123 -19.07888184 130.34880371 -18.53393555 129.7175293 C-17.07505082 128.08403351 -15.56463743 126.53182721 -14 125 C-13.79913557 128.71599191 -13.8480563 129.77208445 -16 133 C-16.99 133 -17.98 133 -19 133 C-19.0825 133.556875 -19.165 134.11375 -19.25 134.6875 C-20.70080628 139.16081936 -23.99164995 142.62004216 -28 145 C-29.32 145 -30.64 145 -32 145 C-33.16090563 142.67818873 -33.12812992 141.34044794 -33.13371277 138.75550842 C-33.13797775 137.86519424 -33.14224274 136.97488007 -33.14663696 136.05758667 C-33.14618378 135.07831207 -33.14573059 134.09903748 -33.14526367 133.09008789 C-33.14862228 132.06073624 -33.1519809 131.03138458 -33.15544128 129.97084045 C-33.16497097 126.55476691 -33.16689537 123.13874227 -33.16796875 119.72265625 C-33.17117979 117.35615519 -33.17454374 114.98965432 -33.17805481 112.62315369 C-33.18405104 107.65737447 -33.18589419 102.69161266 -33.18530273 97.72583008 C-33.18520105 91.35211457 -33.19885734 84.97851032 -33.21607494 78.60482121 C-33.22717442 73.71589135 -33.22922258 68.82698858 -33.22869301 63.93804741 C-33.22987607 61.58763686 -33.234316 59.23722567 -33.24202538 56.88682747 C-33.25178439 53.60424044 -33.24896344 50.3218973 -33.24291992 47.03930664 C-33.24853943 46.06205627 -33.25415894 45.08480591 -33.25994873 44.07794189 C-33.25575424 43.18480789 -33.25155975 42.29167389 -33.24723816 41.37147522 C-33.24778293 40.59515779 -33.24832769 39.81884035 -33.24888897 39.01899815 C-33 37 -33 37 -31 34 C-30.01 34 -29.02 34 -28 34 C-28 33.01 -28 32.02 -28 31 C-27.34 31 -26.68 31 -26 31 C-25.7525 30.21625 -25.505 29.4325 -25.25 28.625 C-23.84610901 25.67682892 -22.99324263 25.0975223 -20 24 C-20 23.01 -20 22.02 -20 21 C-19.01 21 -18.02 21 -17 21 C-17 20.01 -17 19.02 -17 18 C-16.01 18 -15.02 18 -14 18 C-14 17.01 -14 16.02 -14 15 C-13.01 15 -12.02 15 -11 15 C-11 13.35 -11 11.7 -11 10 C-9.68 9.67 -8.36 9.34 -7 9 C-6.896875 8.401875 -6.79375 7.80375 -6.6875 7.1875 C-5.89496146 4.66578648 -5.08408591 3.60314301 -3 2 C-2.01 2 -1.02 2 0 2 C0 1.34 0 0.68 0 0 Z"/>
<path transform="translate(751,402)" fill="#DA853A" d="M0 0 C0.66 0 1.32 0 2 0 C2.495 1.485 2.495 1.485 3 3 C2.59910156 3.37769531 2.19820312 3.75539063 1.78515625 4.14453125 C-2.75455947 8.54012901 -6.72002962 13.25640968 -10.6796875 18.17578125 C-12.88328406 20.85793666 -15.16043825 23.43626421 -17.5 26 C-20.59555196 29.39598682 -23.55151207 32.86171531 -26.4375 36.4375 C-30.29708603 41.20996203 -34.37199991 45.73109109 -38.52734375 50.24609375 C-41.74709519 53.83207284 -44.75905176 57.56701492 -47.78515625 61.31640625 C-50.66598507 64.80693429 -53.70934403 68.13274068 -56.7578125 71.4765625 C-59.04515904 74.05082358 -61.21548271 76.69289489 -63.375 79.375 C-69.80693101 87.31899901 -76.73404893 94.81245847 -84 102 C-83.125 97.25 -83.125 97.25 -82 95 C-81.34 95 -80.68 95 -80 95 C-79.938125 94.4225 -79.87625 93.845 -79.8125 93.25 C-78.66615826 90.07551517 -76.74043158 88.87151425 -74 87 C-73.34 87 -72.68 87 -72 87 C-71.896875 86.360625 -71.79375 85.72125 -71.6875 85.0625 C-71.460625 84.381875 -71.23375 83.70125 -71 83 C-69.515 82.505 -69.515 82.505 -68 82 C-68 81.01 -68 80.02 -68 79 C-67.34 79 -66.68 79 -66 79 C-66 78.01 -66 77.02 -66 76 C-65.34 76 -64.68 76 -64 76 C-63.7421875 75.42636719 -63.484375 74.85273438 -63.21875 74.26171875 C-61.8894836 71.79490707 -60.35595983 69.90831904 -58.5 67.8125 C-57.8915625 67.11769531 -57.283125 66.42289062 -56.65625 65.70703125 C-55 64 -55 64 -53 63 C-52.67 62.01 -52.34 61.02 -52 60 C-51.01 59.67 -50.02 59.34 -49 59 C-47.29144978 55.99992729 -47.29144978 55.99992729 -46 53 C-45.34 53 -44.68 53 -44 53 C-44 52.34 -44 51.68 -44 51 C-43.34 51 -42.68 51 -42 51 C-42 50.01 -42 49.02 -42 48 C-40.70896357 46.6256709 -39.3743291 45.29103643 -38 44 C-37.505 43.01 -37.505 43.01 -37 42 C-36.34 42 -35.68 42 -35 42 C-34.9071875 41.40445313 -34.814375 40.80890625 -34.71875 40.1953125 C-33.83342903 37.49123431 -32.72039762 36.61309813 -30.5 34.875 C-27.8119616 32.80112319 -27.8119616 32.80112319 -26 30 C-25.34 30 -24.68 30 -24 30 C-24 29.34 -24 28.68 -24 28 C-23.34 28 -22.68 28 -22 28 C-22 27.01 -22 26.02 -22 25 C-21.38125 24.7525 -20.7625 24.505 -20.125 24.25 C-17.58138675 22.75375691 -17.1073478 21.68927323 -16 19 C-14.8926522 16.31072677 -14.41861325 15.24624309 -11.875 13.75 C-11.25625 13.5025 -10.6375 13.255 -10 13 C-10 12.34 -10 11.68 -10 11 C-9.34 11 -8.68 11 -8 11 C-7.34 9.68 -6.68 8.36 -6 7 C-5.01 7 -4.02 7 -3 7 C-1.79371992 4.66785852 -0.8345262 2.50357861 0 0 Z"/>
<path transform="translate(839,260)" fill="#214260" d="M0 0 C0.66 0 1.32 0 2 0 C2.19448477 2.12437212 2.38038289 4.24953191 2.5625 6.375 C2.66691406 7.55835938 2.77132812 8.74171875 2.87890625 9.9609375 C3 13 3 13 2 15 C1.34 15 0.68 15 0 15 C0 16.98 0 18.96 0 21 C0.66 21.33 1.32 21.66 2 22 C2 34.21 2 46.42 2 59 C1.34 59 0.68 59 0 59 C-0.0501123 59.59949463 -0.10022461 60.19898926 -0.15185547 60.81665039 C-0.38575757 63.56592826 -0.63029759 66.31416322 -0.875 69.0625 C-0.99294922 70.47692383 -0.99294922 70.47692383 -1.11328125 71.91992188 C-1.5906308 77.18912651 -2.34041022 81.9724192 -4 87 C-4.33 87 -4.66 87 -5 87 C-5.23821577 72.99705537 -4.59285464 59.08519134 -3.77319336 45.10791016 C-3.55965145 41.45122142 -3.35650859 37.79404981 -3.15429688 34.13671875 C-3.02144234 31.80986098 -2.88800128 29.48303661 -2.75390625 27.15625 C-2.66321617 25.51746887 -2.66321617 25.51746887 -2.57069397 23.84558105 C-2.51070724 22.84273071 -2.45072052 21.83988037 -2.38891602 20.80664062 C-2.33784195 19.92383423 -2.28676788 19.04102783 -2.23414612 18.13146973 C-2 16 -2 16 -1 14 C-0.76970044 11.62876754 -0.58880058 9.25258057 -0.4375 6.875 C-0.35371094 5.59367187 -0.26992188 4.31234375 -0.18359375 2.9921875 C-0.09271484 1.51105469 -0.09271484 1.51105469 0 0 Z"/>
<path transform="translate(778,402)" fill="#163D5E" d="M0 0 C3.006818 1.33999498 4.99762609 2.79845291 7.25 5.1875 C10.28174502 8.30916966 13.44008804 11.18308772 16.734375 14.0234375 C21.22353277 17.93984066 25.60194516 21.98192417 30 26 C29.67 26.66 29.34 27.32 29 28 C26.525 27.01 26.525 27.01 24 26 C24 25.01 24 24.02 24 23 C23.34 23 22.68 23 22 23 C19.375 20.625 19.375 20.625 17 18 C17 17.34 17 16.68 17 16 C16.01 16 15.02 16 14 16 C14 15.34 14 14.68 14 14 C13.38125 14.185625 12.7625 14.37125 12.125 14.5625 C10 15 10 15 8 14 C7.59270772 11.67843403 7.25561323 9.3431213 7 7 C2.94245797 6.43329081 2.94245797 6.43329081 -1 7 C-4.39527903 10.10570299 -6.55252477 13.6575743 -8 18 C-8.66 18.33 -9.32 18.66 -10 19 C-9.98839844 19.66902344 -9.97679687 20.33804687 -9.96484375 21.02734375 C-9.88004978 30.05184469 -10.40288975 39.00069546 -11 48 C-10.34 48.33 -9.68 48.66 -9 49 C-9.16226074 49.86786133 -9.32452148 50.73572266 -9.49169922 51.62988281 C-10.35054855 57.68898434 -10.1424028 63.81605277 -10.1328125 69.921875 C-10.13348704 71.2723187 -10.13445832 72.62276228 -10.13571167 73.97320557 C-10.13717955 76.7905799 -10.13506213 79.60792236 -10.13037109 82.42529297 C-10.12465232 86.03557217 -10.12797207 89.64577738 -10.13394356 93.25605392 C-10.13755509 96.03898681 -10.13640823 98.8219021 -10.13381577 101.60483551 C-10.13282571 103.5829727 -10.13585891 105.56111058 -10.13894653 107.53924561 C-10.13421829 109.33691376 -10.13421829 109.33691376 -10.12939453 111.17089844 C-10.12859894 112.22678162 -10.12780334 113.28266479 -10.12698364 114.37054443 C-10.1133231 117.11019481 -10.1133231 117.11019481 -9 120 C-9.99 120 -10.98 120 -12 120 C-12.38675001 106.5353135 -12.71225 93.07064024 -12.96108532 79.60265827 C-13.0785442 73.34777777 -13.2165233 67.09479831 -13.40258789 60.84155273 C-13.58161329 54.79884193 -13.70518011 48.75723597 -13.79146767 42.71251488 C-13.83379938 40.41458096 -13.8956116 38.11691519 -13.9778347 35.82006264 C-14.70040678 15.01859859 -14.70040678 15.01859859 -7.5715332 7.11010742 C-5.7789959 5.29194428 -3.9496923 3.65812639 -2 2 C-1.34 1.34 -0.68 0.68 0 0 Z"/>
<path transform="translate(816,321)" fill="#D38C4D" d="M0 0 C0.33 0 0.66 0 1 0 C1.12092046 8.00087243 0.75544434 15.8979335 0.16015625 23.875 C0.07374374 25.07954834 -0.01266876 26.28409668 -0.10169983 27.52514648 C-0.37661108 31.35037503 -0.65669861 35.17519971 -0.9375 39 C-1.30318193 44.02066194 -1.66642477 49.04149344 -2.02734375 54.0625 C-2.11398285 55.26592041 -2.20062195 56.46934082 -2.28988647 57.70922852 C-2.98296438 67.46741702 -3.54441065 77.22802671 -4 87 C-7.55298576 85.33478579 -9.81825432 83.39032677 -12.5625 80.5625 C-13.32691406 79.78003906 -14.09132813 78.99757813 -14.87890625 78.19140625 C-15.57886719 77.46824219 -16.27882813 76.74507813 -17 76 C-17.99780462 74.99780943 -18.99680002 73.99678975 -20 73 C-15.99843068 74.33385644 -13.94567217 76.05432783 -11 79 C-8.8618034 79.7872678 -8.8618034 79.7872678 -7 80 C-6.25148724 75.26194451 -5.83965895 70.65328634 -5.71875 65.859375 C-5.66267578 63.88324219 -5.66267578 63.88324219 -5.60546875 61.8671875 C-5.55168847 59.79788033 -5.49946374 57.72853958 -5.44775391 55.65917969 C-5.39598274 53.64247892 -5.33869584 51.62592211 -5.28125 49.609375 C-5.25095703 48.41280273 -5.22066406 47.21623047 -5.18945312 45.98339844 C-5 43 -5 43 -4 40 C-3.72069832 37.23769177 -3.48352367 34.48675789 -3.28125 31.71875 C-3.21844849 30.9088562 -3.15564697 30.0989624 -3.09094238 29.26452637 C-2.89035693 26.67661248 -2.69459628 24.08837072 -2.5 21.5 C-2.24388863 18.09340259 -1.98286 14.68723557 -1.71875 11.28125 C-1.661427 10.49681519 -1.604104 9.71238037 -1.54504395 8.9041748 C-1.30042894 5.75438771 -1.00347512 3.01042536 0 0 Z"/>
<path transform="translate(519.3828125,517.8046875)" fill="#18537E" d="M0 0 C0.90492188 0.02320313 1.80984375 0.04640625 2.7421875 0.0703125 C4.10730469 0.09738281 4.10730469 0.09738281 5.5 0.125 C6.19867187 0.14820313 6.89734375 0.17140625 7.6171875 0.1953125 C7.6171875 0.8553125 7.6171875 1.5153125 7.6171875 2.1953125 C8.6071875 1.5353125 9.5971875 0.8753125 10.6171875 0.1953125 C13.14189148 -0.04519653 13.14189148 -0.04519653 16.19018555 -0.03173828 C17.33114182 -0.03158722 18.47209808 -0.03143616 19.64762878 -0.03128052 C20.87895035 -0.02095795 22.11027191 -0.01063538 23.37890625 0 C25.27030083 0.00424484 25.27030083 0.00424484 27.1999054 0.00857544 C30.54879172 0.01788125 33.89740541 0.03584547 37.24621582 0.0579834 C40.66477097 0.07845864 44.0833543 0.08758074 47.50195312 0.09765625 C54.20710669 0.1197307 60.91213135 0.15321888 67.6171875 0.1953125 C67.6171875 0.8553125 67.6171875 1.5153125 67.6171875 2.1953125 C64.39838873 3.26824542 62.08064535 3.32219916 58.69628906 3.32470703 C57.47782288 3.32785919 56.25935669 3.33101135 55.00396729 3.33425903 C53.02587067 3.33122269 53.02587067 3.33122269 51.0078125 3.328125 C49.63881412 3.32879894 48.26981585 3.32976972 46.90081787 3.33102417 C44.02924461 3.33249888 41.15770245 3.33035517 38.28613281 3.32568359 C34.62008285 3.32000797 30.95410645 3.32325293 27.28805923 3.32925606 C24.45863297 3.33288619 21.62922386 3.33171148 18.79979706 3.32912827 C16.79526217 3.3281434 14.79072659 3.3311631 12.78619385 3.33425903 C6.96511358 3.31935419 1.34643937 3.27208679 -4.3828125 2.1953125 C-2.3828125 0.1953125 -2.3828125 0.1953125 0 0 Z"/>
<path transform="translate(820,280)" fill="#D88843" d="M0 0 C-0.33 7.92 -0.66 15.84 -1 24 C-1.33 24 -1.66 24 -2 24 C-2 17.4 -2 10.8 -2 4 C-10.89949973 3.67833134 -18.40905308 4.77442583 -27 7 C-31.25593505 7.97148406 -35.52179699 8.38662777 -39.86328125 8.75390625 C-40.98950142 8.85166603 -40.98950142 8.85166603 -42.13847351 8.95140076 C-43.72264678 9.08807392 -45.30694512 9.22330416 -46.89135742 9.35717773 C-49.29453093 9.56097615 -51.69706108 9.77139555 -54.09960938 9.98242188 C-55.6457989 10.11498561 -57.19202189 10.24715959 -58.73828125 10.37890625 C-59.44688797 10.44139053 -60.15549469 10.50387482 -60.88557434 10.56825256 C-65.60624595 10.9605095 -70.26286577 11.05278606 -75 11 C-75 10.67 -75 10.34 -75 10 C-74.09967041 9.90295776 -74.09967041 9.90295776 -73.18115234 9.80395508 C-57.67198381 8.10422024 -42.32436115 5.83045583 -26.953125 3.18359375 C-22.31989994 2.39134072 -17.68662335 1.60085355 -13.046875 0.84765625 C-12.05010742 0.68402588 -11.05333984 0.52039551 -10.02636719 0.35180664 C-6.70455722 -0.03434439 -3.34417914 0 0 0 Z"/>
<path transform="translate(786,284)" fill="#FDE9C8" d="M0 0 C-3.52030218 2.34686812 -6.49715698 2.64335684 -10.5859375 3.11328125 C-11.72743759 3.25520401 -11.72743759 3.25520401 -12.89199829 3.3999939 C-14.53146233 3.60382005 -16.17132346 3.80447204 -17.81152344 4.00228882 C-33.1754538 5.8615073 -48.39601265 8.12980624 -63.625 10.88671875 C-81.98794263 14.16540729 -81.98794263 14.16540729 -90 14 C-90 13.34 -90 12.68 -90 12 C-83.97403427 10.9287172 -78.11090483 10.90054585 -72 11 C-72 10.34 -72 9.68 -72 9 C-64.89939251 6.60317047 -57.79726267 6.29895515 -50.36132812 5.7890625 C-45.23243995 5.40045961 -40.850105 4.81437698 -36 3 C-24.21809181 0.7181874 -11.98984903 -0.11101712 0 0 Z"/>
<path transform="translate(649,420)" fill="#FEDEB4" d="M0 0 C0.33 0 0.66 0 1 0 C1.33 33.99 1.66 67.98 2 103 C6.29 98.05 10.58 93.1 15 88 C15.99 87.01 16.98 86.02 18 85 C18.20086443 88.71599191 18.1519437 89.77208445 16 93 C15.01 93 14.02 93 13 93 C12.9175 93.556875 12.835 94.11375 12.75 94.6875 C11.29919372 99.16081936 8.00835005 102.62004216 4 105 C2.68 105 1.36 105 0 105 C0 70.35 0 35.7 0 0 Z"/>
<path transform="translate(631,382)" fill="#E6FAFE" d="M0 0 C0.33 0 0.66 0 1 0 C1.09447605 4.71268789 0.75119979 9.07718616 0.01220703 13.7265625 C-1.67273273 25.86973062 -1.24687337 38.14480643 -1.1953125 50.375 C-1.19157527 52.99772025 -1.18873166 55.62044191 -1.18673706 58.24316406 C-1.18057112 64.39796118 -1.164228 70.55268551 -1.14403808 76.70745087 C-1.12152501 83.7258159 -1.1106473 90.74418479 -1.10064721 97.76257706 C-1.0798562 112.17508856 -1.04477751 126.58754326 -1 141 C-1.66 141.33 -2.32 141.66 -3 142 C-3.07023771 125.10972125 -3.12306023 108.21948841 -3.15543652 91.32909679 C-3.17087232 83.48570547 -3.19189858 75.64240516 -3.22631836 67.79907227 C-3.25632181 60.95881104 -3.27559886 54.11861577 -3.28226548 47.27829057 C-3.28615931 43.66000944 -3.29524079 40.0419169 -3.31719017 36.42369652 C-3.34155667 32.37377104 -3.34196302 28.32416857 -3.34057617 24.27416992 C-3.351362 23.08877121 -3.36214783 21.9033725 -3.3732605 20.68205261 C-3.3461677 13.34139207 -2.31542399 6.97053076 0 0 Z"/>
<path transform="translate(817.1875,277.9375)" fill="#FBE2BC" d="M0 0 C1.8871875 0.0309375 1.8871875 0.0309375 3.8125 0.0625 C6.22076853 3.80869549 6.07971537 7.18979615 6.0625 11.5625 C6.07023438 13.52703125 6.07023438 13.52703125 6.078125 15.53125 C5.8125 19.0625 5.8125 19.0625 4.84912109 20.93066406 C3.57736468 23.54606138 3.29865316 25.81719118 2.9609375 28.703125 C2.83203125 29.77304687 2.703125 30.84296875 2.5703125 31.9453125 C2.38082031 33.61207031 2.38082031 33.61207031 2.1875 35.3125 C2.0534375 36.43914062 1.919375 37.56578125 1.78125 38.7265625 C1.45166486 41.50449438 1.12900936 44.28305304 0.8125 47.0625 C0.4825 47.0625 0.1525 47.0625 -0.1875 47.0625 C-0.21480494 44.87507121 -0.23403255 42.68754093 -0.25 40.5 C-0.26160156 39.28183594 -0.27320313 38.06367188 -0.28515625 36.80859375 C-0.18948653 33.13870325 0.27601047 29.69075883 0.8125 26.0625 C1.0355322 23.23186386 1.17552139 20.39846448 1.3125 17.5625 C1.56502543 12.33428833 1.99576183 7.2351751 2.8125 2.0625 C1.62491089 2.24425781 1.62491089 2.24425781 0.41333008 2.4296875 C-3.18220943 2.97778 -6.77858283 3.52019767 -10.375 4.0625 C-11.62087891 4.25328125 -12.86675781 4.4440625 -14.15039062 4.640625 C-15.9534668 4.91132813 -15.9534668 4.91132813 -17.79296875 5.1875 C-18.89793701 5.35507812 -20.00290527 5.52265625 -21.14135742 5.6953125 C-23.86439233 6.02355202 -26.44934109 6.13379462 -29.1875 6.0625 C-27.57825085 4.15455476 -26.60478831 3.16662204 -24.15039062 2.55419922 C-23.00860352 2.46162842 -23.00860352 2.46162842 -21.84375 2.3671875 C-20.59271484 2.25310547 -20.59271484 2.25310547 -19.31640625 2.13671875 C-18.44886719 2.07097656 -17.58132813 2.00523437 -16.6875 1.9375 C-14.96850653 1.79190917 -13.24974182 1.64358477 -11.53125 1.4921875 C-10.38946289 1.40300049 -10.38946289 1.40300049 -9.22460938 1.31201172 C-5.97460776 0.91394105 -3.33111602 -0.05460846 0 0 Z"/>
<path transform="translate(663,404)" fill="#D18F53" d="M0 0 C0.33 0.99 0.66 1.98 1 3 C0.360625 3.5775 -0.27875 4.155 -0.9375 4.75 C-3.07182998 7.07835998 -3.33389185 8.05009248 -4 11 C-5.4375 12.75 -5.4375 12.75 -7 14 C-7.66 14 -8.32 14 -9 14 C-9 14.66 -9 15.32 -9 16 C-9.99 16 -10.98 16 -12 16 C-12 48.67 -12 81.34 -12 115 C-11.01 115 -10.02 115 -9 115 C-10.75 118.875 -10.75 118.875 -13 120 C-13.20889356 106.4827077 -13.36862963 92.96580181 -13.46630955 79.44722176 C-13.51320118 73.16931104 -13.57676334 66.89250777 -13.67895508 60.61523438 C-13.77702927 54.55267393 -13.83061797 48.49117589 -13.85389519 42.42788315 C-13.87047438 40.11937619 -13.90285131 37.81092483 -13.95157051 35.50287247 C-14.3641532 15.1397565 -14.3641532 15.1397565 -8.69506836 8.81591797 C-7.148926 7.521061 -5.58432615 6.24784671 -4 5 C-2.62960372 3.36367192 -1.28564781 1.70372101 0 0 Z"/>
<path transform="translate(573,146)" fill="#174C71" d="M0 0 C25.41 0 50.82 0 77 0 C77 1.32 77 2.64 77 4 C51.26 3.67 25.52 3.34 -1 3 C-0.67 2.01 -0.34 1.02 0 0 Z"/>
<path transform="translate(566,89)" fill="#1A547C" d="M0 0 C1.98372176 3.30897509 2.2262621 5.74841398 2.16015625 9.578125 C2.14919922 10.65707031 2.13824219 11.73601562 2.12695312 12.84765625 C2.10568359 13.97042969 2.08441406 15.09320313 2.0625 16.25 C1.95182533 23.29218823 1.98968033 30.02726352 3 37 C3.10562719 38.89392006 3.17365465 40.79068726 3.1875 42.6875 C3.20167969 43.57824219 3.21585938 44.46898437 3.23046875 45.38671875 C2.97818542 48.24735518 2.18590992 50.398498 1 53 C0.34 53 -0.32 53 -1 53 C-1.02526692 45.61271898 -1.0428316 38.22544902 -1.05493164 30.83813477 C-1.05997363 28.32283105 -1.06680703 25.80753028 -1.07543945 23.29223633 C-1.08751094 19.68570225 -1.09322949 16.07920677 -1.09765625 12.47265625 C-1.10281754 11.34038101 -1.10797882 10.20810577 -1.11329651 9.04151917 C-1.11337204 8.00051559 -1.11344757 6.95951202 -1.11352539 5.88696289 C-1.115746 4.96540909 -1.11796661 4.04385529 -1.12025452 3.09437561 C-1 1 -1 1 0 0 Z"/>
<path transform="translate(816,332)" fill="#FDF1D7" d="M0 0 C0.33 0 0.66 0 1 0 C1.0247366 5.33853824 1.0428774 10.67704303 1.05493164 16.015625 C1.05995741 17.83138612 1.06677903 19.6471432 1.07543945 21.46289062 C1.08758189 24.0742289 1.09324591 26.68551362 1.09765625 29.296875 C1.10281754 30.10743347 1.10797882 30.91799194 1.11329651 31.75311279 C1.11365426 35.35512011 0.91165073 38.52990617 0 42 C-0.12294333 43.85711859 -0.20045406 45.71750104 -0.24609375 47.578125 C-0.27896484 48.65707031 -0.31183594 49.73601562 -0.34570312 50.84765625 C-0.40647701 53.10016916 -0.46381774 55.35277754 -0.51757812 57.60546875 C-0.70997679 63.71140366 -1.23597303 69.14371614 -3 75 C-3.33 75 -3.66 75 -4 75 C-4.38703596 59.05895658 -3.18137168 43.26405264 -2 27.375 C-1.80597319 24.71103137 -1.61398874 22.04692034 -1.421875 19.3828125 C-0.95466522 12.92136892 -0.48024892 6.46048685 0 0 Z"/>
<path transform="translate(837,291)" fill="#1E3F5E" d="M0 0 C0.33 0 0.66 0 1 0 C1.96110818 9.78851719 2.04119172 19.42398001 1.6875 29.25 C1.65277588 30.32556152 1.61805176 31.40112305 1.58227539 32.50927734 C0.76030014 52.23969986 0.76030014 52.23969986 -3 56 C-3.11900066 44.26653475 -2.864327 32.60423175 -2.20043945 20.88891602 C-2.05926801 18.38006211 -1.92869044 15.87079044 -1.79882812 13.36132812 C-1.71155284 11.760383 -1.62368641 10.15946997 -1.53515625 8.55859375 C-1.49656998 7.81089218 -1.4579837 7.06319061 -1.41822815 6.29283142 C-1.1150694 1.1150694 -1.1150694 1.1150694 0 0 Z"/>
<path transform="translate(626,388)" fill="#316282" d="M0 0 C0.66 0 1.32 0 2 0 C3.05404945 3.98196457 2.84098656 6.98195309 2 11 C1.67 11 1.34 11 1 11 C0.67 51.59 0.34 92.18 0 134 C-0.33 134 -0.66 134 -1 134 C-1.02335383 117.11919015 -1.04099141 100.23838533 -1.05181217 83.35756302 C-1.05696984 75.51961985 -1.06400249 67.68168672 -1.07543945 59.84375 C-1.08540243 53.01271265 -1.09185728 46.18168257 -1.09408849 39.35063815 C-1.09539285 35.73321302 -1.09846139 32.11580867 -1.10573006 28.4983902 C-1.11377594 24.46148249 -1.11399009 20.42461101 -1.11352539 16.38769531 C-1.11712067 15.18648041 -1.12071594 13.9852655 -1.12442017 12.74765015 C-1.12235817 11.09864212 -1.12235817 11.09864212 -1.12025452 9.4163208 C-1.12117631 8.46134327 -1.1220981 7.50636574 -1.12304783 6.52244949 C-1.00968863 4.1986144 -0.65911481 2.22363738 0 0 Z"/>
<path transform="translate(837.25390625,517.92578125)" fill="#0C3A62" d="M0 0 C1.14275391 0.19142578 1.14275391 0.19142578 2.30859375 0.38671875 C6.27834952 1.00929428 9.76185436 1.0864781 13.74609375 0.57421875 C21.44692252 -0.23941048 29.20058223 -0.00983208 36.93359375 0.05834961 C38.20438939 0.06947592 39.47524941 0.07421875 40.74609375 0.07421875 C45.07942708 0.07421875 49.41276042 0.07421875 53.74609375 0.07421875 C53.41609375 1.06421875 53.08609375 2.05421875 52.74609375 3.07421875 C33.27609375 3.07421875 13.80609375 3.07421875 -6.25390625 3.07421875 C-2.25390625 0.07421875 -2.25390625 0.07421875 0 0 Z"/>
<path transform="translate(651,420)" fill="#CF772E" d="M0 0 C0.33 0 0.66 0 1 0 C1 32.01 1 64.02 1 97 C1.99 97 2.98 97 4 97 C4.33 95.35 4.66 93.7 5 92 C6.485 91.505 6.485 91.505 8 91 C8.33 90.01 8.66 89.02 9 88 C9.99 88 10.98 88 12 88 C12 86.68 12 85.36 12 84 C13.32 84.33 14.64 84.66 16 85 C14.28539456 87.15902156 12.55506465 89.30123654 10.8125 91.4375 C10.08836914 92.35499023 10.08836914 92.35499023 9.34960938 93.29101562 C8.6293457 94.1659668 8.6293457 94.1659668 7.89453125 95.05859375 C7.45987549 95.59798584 7.02521973 96.13737793 6.57739258 96.69311523 C5 98 5 98 0 99 C0 66.33 0 33.66 0 0 Z"/>
<path transform="translate(720,323)" fill="#DC7F32" d="M0 0 C3.42430894 1.23655601 6.40112619 2.40112619 9 5 C9.38946316 8.0108498 9.32846285 9.50020639 7.64453125 12.0625 C7.03996094 12.701875 6.43539062 13.34125 5.8125 14 C5.17441406 14.68835938 4.53632812 15.37671875 3.87890625 16.0859375 C2.36506647 17.62810277 0.81318198 19.13287175 -0.75 20.625 C-3.15103941 22.92291928 -3.15103941 22.92291928 -4.5 26.0625 C-6.19908133 29.3898676 -7.91315775 30.94210517 -11 33 C-11.66 33 -12.32 33 -13 33 C-13 33.66 -13 34.32 -13 35 C-14.62626404 36.38232443 -16.2925002 37.71937515 -18 39 C-18.66 38.67 -19.32 38.34 -20 38 C-19.45472656 37.40574219 -18.90945313 36.81148438 -18.34765625 36.19921875 C-13.43869943 30.80356194 -8.72484337 25.29989307 -4.15625 19.61328125 C-1.61047868 16.5279171 1.0954946 13.62174667 3.8828125 10.75390625 C5.21663275 9.05554813 5.21663275 9.05554813 4.80859375 6.94921875 C3.67733801 4.22218197 1.91493515 2.22379566 0 0 Z"/>
<path transform="translate(772.75439453125,265.8984375)" fill="#184F75" d="M0 0 C2.08161967 -0.04671236 4.16521176 0.01621301 6.24560547 0.1015625 C6.90560547 0.7615625 7.56560547 1.4215625 8.24560547 2.1015625 C1.35689408 3.5495674 -5.53550044 4.73820994 -12.50439453 5.7265625 C-13.86371094 5.92765625 -13.86371094 5.92765625 -15.25048828 6.1328125 C-19.79170285 6.78250451 -24.1525764 7.26917839 -28.75439453 7.1015625 C-27.76439453 6.1115625 -26.77439453 5.1215625 -25.75439453 4.1015625 C-26.41439453 3.7715625 -27.07439453 3.4415625 -27.75439453 3.1015625 C-27.75439453 2.4415625 -27.75439453 1.7815625 -27.75439453 1.1015625 C-23.77535222 0.93183818 -19.79614436 0.76634397 -15.81689453 0.6015625 C-14.14143555 0.53001953 -14.14143555 0.53001953 -12.43212891 0.45703125 C-8.28862197 0.2869166 -4.1441367 0.15280632 0 0 Z"/>
<path transform="translate(713,341)" fill="#FEF1D6" d="M0 0 C0.99 0.33 1.98 0.66 3 1 C1.43767979 4.67956291 -0.83584082 7.16515793 -3.5625 10.0625 C-7.03391819 13.79595956 -10.3591628 17.59216657 -13.5625 21.5625 C-17.85562967 26.88291427 -22.37879867 31.96365529 -27 37 C-27.33 36.34 -27.66 35.68 -28 35 C-26.63671875 32.3984375 -26.63671875 32.3984375 -24.6875 29.375 C-23.73423828 27.87066406 -23.73423828 27.87066406 -22.76171875 26.3359375 C-22.18035156 25.56507813 -21.59898437 24.79421875 -21 24 C-20.34 24 -19.68 24 -19 24 C-19 23.01 -19 22.02 -19 21 C-18.01 21 -17.02 21 -16 21 C-16 20.01 -16 19.02 -16 18 C-15.01 18 -14.02 18 -13 18 C-12.896875 17.360625 -12.79375 16.72125 -12.6875 16.0625 C-12.3471875 15.0415625 -12.3471875 15.0415625 -12 14 C-11.01 13.67 -10.02 13.34 -9 13 C-8.40929986 11.05396726 -8.40929986 11.05396726 -8 9 C-7.34 8.34 -6.68 7.68 -6 7 C-5.01 7 -4.02 7 -3 7 C-2.67 5.68 -2.34 4.36 -2 3 C-1.34 3 -0.68 3 0 3 C0 2.01 0 1.02 0 0 Z"/>
<path transform="translate(652,420)" fill="#E8802C" d="M0 0 C0.33 0 0.66 0 1 0 C1.13267996 8.4342967 1.26318213 16.86862347 1.39115143 25.30299282 C1.45068183 29.22243804 1.51087124 33.14187046 1.57275391 37.0612793 C1.64434866 41.60202013 1.71350755 46.1427939 1.78125 50.68359375 C1.79248901 51.42591625 1.80372803 52.16823875 1.81530762 52.93305588 C1.97738848 63.81275265 2.0469945 74.6884409 1.93762207 85.56944275 C1.93178101 86.50051346 1.92593994 87.43158417 1.91992188 88.39086914 C1.91150269 89.19093887 1.9030835 89.99100861 1.89440918 90.81532288 C2.00017867 93.00369668 2.39280555 94.90003183 3 97 C2.01 97 1.02 97 0 97 C0 64.99 0 32.98 0 0 Z"/>
<path transform="translate(705,310)" fill="#FEEECD" d="M0 0 C4.92992851 4.17489441 9.72013587 8.46214297 14.4375 12.875 C15.07365234 13.46796875 15.70980469 14.0609375 16.36523438 14.671875 C17.91131892 16.11333728 19.45582838 17.55648867 21 19 C20.18957967 22.88224084 18.69126827 24.80882825 16 27.75 C15.278125 28.54921875 14.55625 29.3484375 13.8125 30.171875 C13.214375 30.77515625 12.61625 31.3784375 12 32 C11.67 32 11.34 32 11 32 C10.875 29.625 10.875 29.625 11 27 C11.66 26.34 12.32 25.68 13 25 C13.99 25 14.98 25 16 25 C16 24.01 16 23.02 16 22 C16.66 22 17.32 22 18 22 C18 20.68 18 19.36 18 18 C16.35 17.67 14.7 17.34 13 17 C13 16.34 13 15.68 13 15 C12.01 14.67 11.02 14.34 10 14 C8.28125 12.22265625 8.28125 12.22265625 6.5 10.0625 C4.37123979 7.49024808 2.81608855 5.87739237 0 4 C0 2.68 0 1.36 0 0 Z"/>
<path transform="translate(817,284)" fill="#D87E34" d="M0 0 C0.33 0 0.66 0 1 0 C1.38181146 16.95047079 0.74010655 33.25571415 -2 50 C-2.33 50 -2.66 50 -3 50 C-2.90527445 44.96837907 -2.79894477 39.9371738 -2.68261719 34.90600586 C-2.64472425 33.20034197 -2.60980845 31.49460889 -2.578125 29.78881836 C-2.38823615 19.68613839 -1.90979139 9.94954185 0 0 Z"/>
<path transform="translate(832,360)" fill="#153553" d="M0 0 C0.99 0 1.98 0 3 0 C2.85975781 2.47960136 2.7130815 4.95852402 2.5625 7.4375 C2.52318359 8.14455078 2.48386719 8.85160156 2.44335938 9.58007812 C2.11328125 14.88671875 2.11328125 14.88671875 1 16 C0.91262355 17.85369611 0.89301847 19.71067541 0.90234375 21.56640625 C0.90556641 22.69111328 0.90878906 23.81582031 0.91210938 24.97460938 C0.92048828 26.15861328 0.92886719 27.34261719 0.9375 28.5625 C0.94201172 29.75037109 0.94652344 30.93824219 0.95117188 32.16210938 C0.96300325 35.10812226 0.97948713 38.05403681 1 41 C0.01 41 -0.98 41 -2 41 C-2.24984036 27.17549985 -1.6516039 13.72895743 0 0 Z"/>
<path transform="translate(771,518)" fill="#0D3A62" d="M0 0 C4.27745954 -0.07129099 7.86383918 -0.07233799 12 1 C12.99 0.67 13.98 0.34 15 0 C16.66965451 0.31802943 18.33678518 0.64984951 20 1 C20.33 0.67 20.66 0.34 21 0 C23.33297433 -0.04092937 25.66705225 -0.04241723 28 0 C28 0.66 28 1.32 28 2 C29.20398438 1.9278125 30.40796875 1.855625 31.6484375 1.78125 C33.22395649 1.68746911 34.79947743 1.5937208 36.375 1.5 C37.1690625 1.45230469 37.963125 1.40460937 38.78125 1.35546875 C44.7734375 1 44.7734375 1 47 1 C47 1.66 47 2.32 47 3 C30.83 3 14.66 3 -2 3 C-1.34 2.67 -0.68 2.34 0 2 C0 1.34 0 0.68 0 0 Z"/>
<path transform="translate(821,299)" fill="#FEFAE6" d="M0 0 C1.18895709 4.14239543 0.92101859 7.99473279 0.625 12.25 C0.58117187 12.97574219 0.53734375 13.70148438 0.4921875 14.44921875 C0.22823825 18.5624279 -0.19490918 22.62203541 -0.73242188 26.70996094 C-1.32618475 31.79161768 -1.66815091 36.89975177 -2.0625 42 C-2.15337891 43.15628906 -2.24425781 44.31257813 -2.33789062 45.50390625 C-2.56023046 48.33581362 -2.78089042 51.16784118 -3 54 C-3.33 54 -3.66 54 -4 54 C-4.95853815 9.9170763 -4.95853815 9.9170763 0 0 Z"/>
<path transform="translate(811,262)" fill="#315A76" d="M0 0 C0 0.66 0 1.32 0 2 C-4.20588488 2.70307196 -8.41497615 3.38469063 -12.625 4.0625 C-13.81480469 4.26166016 -15.00460937 4.46082031 -16.23046875 4.66601562 C-17.96103516 4.94155273 -17.96103516 4.94155273 -19.7265625 5.22265625 C-21.31331787 5.48187866 -21.31331787 5.48187866 -22.93212891 5.74633789 C-26.1564058 6.01293217 -28.84451129 5.66376925 -32 5 C-32 4.34 -32 3.68 -32 3 C-28.08705673 2.40208337 -24.17272335 1.81441413 -20.25683594 1.23608398 C-18.27197767 0.94076991 -16.28832023 0.63742126 -14.3046875 0.33398438 C-13.05429687 0.15029297 -11.80390625 -0.03339844 -10.515625 -0.22265625 C-9.36352539 -0.39547119 -8.21142578 -0.56828613 -7.02441406 -0.74633789 C-4.30270685 -0.97461153 -2.55197591 -0.87895308 0 0 Z"/>
<path transform="translate(779,376)" fill="#CF823C" d="M0 0 C0.66 1.32 1.32 2.64 2 4 C1.28457031 3.72542969 0.56914063 3.45085937 -0.16796875 3.16796875 C-3.20237725 2.66390396 -3.20237725 2.66390396 -5.61328125 5.17578125 C-6.53048895 6.20606475 -7.42939635 7.25283874 -8.3125 8.3125 C-8.78598877 8.85487305 -9.25947754 9.39724609 -9.74731445 9.95605469 C-13.98042424 14.84650626 -18.04737964 19.88084698 -22 25 C-22.33 24.01 -22.66 23.02 -23 22 C-22.34 22 -21.68 22 -21 22 C-20.67 20.35 -20.34 18.7 -20 17 C-19.01 17 -18.02 17 -17 17 C-16.9175 16.2575 -16.835 15.515 -16.75 14.75 C-15.5383946 10.30744687 -12.72925574 8.48617049 -9 6 C-8.67 5.01 -8.34 4.02 -8 3 C-5.63336089 -0.1949628 -3.86844889 -0.31365802 0 0 Z"/>
<path transform="translate(773,289)" fill="#E0802F" d="M0 0 C-3.94662266 2.45072536 -8.24081921 2.88152168 -12.75 3.5625 C-13.58313721 3.69180908 -14.41627441 3.82111816 -15.2746582 3.9543457 C-23.16600669 5.12468233 -31.03123676 5.68124947 -39 6 C-32.61904143 1.74602762 -25.4596801 1.48661356 -18 0.875 C-17.0409375 0.78863281 -16.081875 0.70226562 -15.09375 0.61328125 C-10.04243938 0.1761486 -5.06959281 -0.09857542 0 0 Z"/>
<path transform="translate(685,483)" fill="#FBEACC" d="M0 0 C0.33 0 0.66 0 1 0 C1.3125 2.1875 1.3125 2.1875 1 5 C-1.375 7.8125 -1.375 7.8125 -4 10 C-4.66 10 -5.32 10 -6 10 C-6.1546875 11.1446875 -6.1546875 11.1446875 -6.3125 12.3125 C-7.33498456 16.30948512 -9.15044627 17.42655123 -12.5 19.6875 C-15 21 -15 21 -18 21 C-17.45472656 20.40574219 -16.90945313 19.81148438 -16.34765625 19.19921875 C-11.27762221 13.62651467 -6.44747105 7.94283698 -1.75 2.0546875 C-0.88375 1.03761719 -0.88375 1.03761719 0 0 Z"/>
<path transform="translate(821,280)" fill="#FBE9CC" d="M0 0 C2.47430256 2.47430256 2.26006698 3.92975776 2.2734375 7.3125 C2.26570312 7.993125 2.25796875 8.67375 2.25 9.375 C2.25773438 10.04789062 2.26546875 10.72078125 2.2734375 11.4140625 C2.25338465 16.50748599 2.25338465 16.50748599 1.03662109 18.87255859 C-0.23675603 21.48589072 -0.51398534 23.75587474 -0.8515625 26.640625 C-0.98046875 27.71054687 -1.109375 28.78046875 -1.2421875 29.8828125 C-1.36851562 30.99398438 -1.49484375 32.10515625 -1.625 33.25 C-1.82609375 34.93996094 -1.82609375 34.93996094 -2.03125 36.6640625 C-2.36083514 39.44199438 -2.68349064 42.22055304 -3 45 C-3.33 45 -3.66 45 -4 45 C-4.35196521 36.65712095 -3.85141143 29.1987411 -2.14404297 21.0703125 C-0.71413679 14.07587272 -0.29694141 7.1265939 0 0 Z"/>
<path transform="translate(705,460)" fill="#FBE9C9" d="M0 0 C0.33 0.99 0.66 1.98 1 3 C-0.8125 6.1875 -0.8125 6.1875 -3 9 C-3.66 9 -4.32 9 -5 9 C-5 9.66 -5 10.32 -5 11 C-5.61875 11.433125 -6.2375 11.86625 -6.875 12.3125 C-9.19460418 13.86379125 -9.19460418 13.86379125 -10 16.5625 C-11 19 -11 19 -13.125 20.3125 C-14.053125 20.6528125 -14.053125 20.6528125 -15 21 C-15 21.66 -15 22.32 -15 23 C-16.32 22.67 -17.64 22.34 -19 22 C-18.43152344 21.3709375 -17.86304688 20.741875 -17.27734375 20.09375 C-8.30054471 10.32862024 -8.30054471 10.32862024 0 0 Z"/>
<path transform="translate(786,412)" fill="#1D3E58" d="M0 0 C2.16015625 -0.32421875 2.16015625 -0.32421875 5 0 C7.02532939 1.68335237 8.68388457 3.25892346 10.4375 5.1875 C14.11890696 9.06224124 17.78981099 12.70012213 22 16 C21.67 16.66 21.34 17.32 21 18 C19.35 17.34 17.7 16.68 16 16 C16 15.01 16 14.02 16 13 C15.34 13 14.68 13 14 13 C11.375 10.625 11.375 10.625 9 8 C9 7.34 9 6.68 9 6 C8.01 6 7.02 6 6 6 C6 5.34 6 4.68 6 4 C5.38125 4.185625 4.7625 4.37125 4.125 4.5625 C2 5 2 5 0 4 C0 2.68 0 1.36 0 0 Z"/>
<path transform="translate(666,505)" fill="#FCEACD" d="M0 0 C0.33 0 0.66 0 1 0 C1.20086443 3.71599191 1.1519437 4.77208445 -1 8 C-1.99 8 -2.98 8 -4 8 C-4.0825 8.556875 -4.165 9.11375 -4.25 9.6875 C-5.68220561 14.10346731 -8.97088458 17.73362257 -13 20 C-15.25 19.6875 -15.25 19.6875 -17 19 C-16.28199219 18.29101562 -15.56398438 17.58203125 -14.82421875 16.8515625 C-12.07223515 14.09860887 -9.43328934 11.2535069 -6.8125 8.375 C-5.95269531 7.43398438 -5.09289062 6.49296875 -4.20703125 5.5234375 C-1.91431852 3.01256804 -1.91431852 3.01256804 0 0 Z"/>
<path transform="translate(714,298)" fill="#EA7F29" d="M0 0 C-3.82517513 2.39073445 -7.59665524 2.55966552 -12 3 C-11.3503125 3.70576172 -11.3503125 3.70576172 -10.6875 4.42578125 C-10.130625 5.04839844 -9.57375 5.67101562 -9 6.3125 C-8.443125 6.92738281 -7.88625 7.54226563 -7.3125 8.17578125 C-6 10 -6 10 -6 13 C-5.34 13 -4.68 13 -4 13 C-4 13.66 -4 14.32 -4 15 C-3.01 15.33 -2.02 15.66 -1 16 C-1.66 16.66 -2.32 17.32 -3 18 C-3.47050781 17.51789063 -3.94101562 17.03578125 -4.42578125 16.5390625 C-5.04839844 15.90742188 -5.67101562 15.27578125 -6.3125 14.625 C-6.92738281 13.99851562 -7.54226563 13.37203125 -8.17578125 12.7265625 C-10.08812528 10.81913393 -10.08812528 10.81913393 -13 9 C-13.70052461 6.336937 -13.77744818 3.75964263 -14 1 C-9.23692563 0.04738513 -4.8333472 -0.08333357 0 0 Z"/>
<path transform="translate(714,293)" fill="#FEFAE8" d="M0 0 C0 0.66 0 1.32 0 2 C-5.94 2.33 -11.88 2.66 -18 3 C-18 3.66 -18 4.32 -18 5 C-18.66 5 -19.32 5 -20 5 C-18.02 7.64 -16.04 10.28 -14 13 C-18 12 -18 12 -20 11 C-20 10.34 -20 9.68 -20 9 C-20.66 9 -21.32 9 -22 9 C-22.04254356 7.00045254 -22.04080783 4.99958364 -22 3 C-17.83748745 -1.16251255 -5.70530492 -0.22373745 0 0 Z"/>
<path transform="translate(829,404)" fill="#092F52" d="M0 0 C0.99 0.33 1.98 0.66 3 1 C3 11.89 3 22.78 3 34 C2.67 34 2.34 34 2 34 C1.93941406 32.73542969 1.87882813 31.47085937 1.81640625 30.16796875 C1.73199096 28.50780129 1.64734345 26.84764563 1.5625 25.1875 C1.52318359 24.35412109 1.48386719 23.52074219 1.44335938 22.66210938 C1.40146484 21.85966797 1.35957031 21.05722656 1.31640625 20.23046875 C1.26141968 19.12288208 1.26141968 19.12288208 1.20532227 17.99291992 C1.05157859 15.792505 1.05157859 15.792505 0 13 C-0.06937062 10.77181559 -0.08457084 8.54165476 -0.0625 6.3125 C-0.05347656 5.13300781 -0.04445313 3.95351563 -0.03515625 2.73828125 C-0.02355469 1.83464844 -0.01195312 0.93101562 0 0 Z"/>
<path transform="translate(839,291)" fill="#0A3659" d="M0 0 C0.33 0 0.66 0 1 0 C1.79822348 9.37912587 2.12873737 18.58786748 2 28 C1.34 28 0.68 28 0 28 C-0.33 28.66 -0.66 29.32 -1 30 C-1.14141393 19.94389808 -0.72904559 10.02437685 0 0 Z"/>
<path transform="translate(631,382)" fill="#D9EDF4" d="M0 0 C0.33 0 0.66 0 1 0 C1.09746232 5.01606057 0.73524141 9.78055252 0.0625 14.75 C-0.78382709 21.15641248 -1.481323 27.55748564 -2 34 C-2.33 34 -2.66 34 -3 34 C-3.08858959 30.39599373 -3.14091522 26.79227455 -3.1875 23.1875 C-3.21263672 22.18267578 -3.23777344 21.17785156 -3.26367188 20.14257812 C-3.33284884 12.97123275 -2.23677823 6.80952291 0 0 Z"/>
<path transform="translate(816,332)" fill="#FDE5C3" d="M0 0 C0.33 0 0.66 0 1 0 C1 9.57 1 19.14 1 29 C0.34 29 -0.32 29 -1 29 C-1 31.97 -1 34.94 -1 38 C-1.33 38 -1.66 38 -2 38 C-2.15564365 29.55525104 -1.67143656 21.22814068 -1 12.8125 C-0.90460937 11.57435547 -0.80921875 10.33621094 -0.7109375 9.06054688 C-0.47769475 6.04005322 -0.24064568 3.01991131 0 0 Z"/>
<path transform="translate(597.66796875,517.70703125)" fill="#19537E" d="M0 0 C0.89267578 0.00966797 1.78535156 0.01933594 2.70507812 0.02929688 C4.09823242 0.06700195 4.09823242 0.06700195 5.51953125 0.10546875 C6.45990234 0.11900391 7.40027344 0.13253906 8.36914062 0.14648438 C10.69068163 0.18183779 13.01106778 0.23118201 15.33203125 0.29296875 C15.00203125 0.95296875 14.67203125 1.61296875 14.33203125 2.29296875 C11.5079136 3.2343413 9.80285093 3.41022257 6.8828125 3.390625 C6.03525391 3.38740234 5.18769531 3.38417969 4.31445312 3.38085938 C3.43337891 3.37248047 2.55230469 3.36410156 1.64453125 3.35546875 C0.75185547 3.35095703 -0.14082031 3.34644531 -1.06054688 3.34179688 C-3.26308862 3.33001858 -5.46549474 3.31357039 -7.66796875 3.29296875 C-5.25260353 0.33098623 -3.77606574 -0.07215412 0 0 Z"/>
<path transform="translate(650,478)" fill="#CB905A" d="M0 0 C0.33 0 0.66 0 1 0 C1 13.53 1 27.06 1 41 C1.99 41 2.98 41 4 41 C2.25 44.875 2.25 44.875 0 46 C0 30.82 0 15.64 0 0 Z"/>
<path transform="translate(786,284)" fill="#F9DFB9" d="M0 0 C-3.04943819 2.0329588 -4.4029048 2.38674229 -7.9296875 2.8515625 C-8.89003906 2.98046875 -9.85039063 3.109375 -10.83984375 3.2421875 C-12.34224609 3.43167969 -12.34224609 3.43167969 -13.875 3.625 C-14.86886719 3.7590625 -15.86273437 3.893125 -16.88671875 4.03125 C-21.29645814 4.60977003 -25.54609143 5.07498163 -30 5 C-28.68 4.67 -27.36 4.34 -26 4 C-26 3.34 -26 2.68 -26 2 C-22.11363708 0.80187257 -18.15748781 0.66317134 -14.125 0.4375 C-13.43019531 0.39431641 -12.73539063 0.35113281 -12.01953125 0.30664062 C-8.00745146 0.06863589 -4.01868417 -0.04409215 0 0 Z"/>
<path transform="translate(778,402)" fill="#16344C" d="M0 0 C3.21524305 1.40844718 5.32183868 3.10344786 7.75 5.625 C8.67039062 6.57246094 8.67039062 6.57246094 9.609375 7.5390625 C10.29773438 8.26222656 10.29773438 8.26222656 11 9 C10.01 9.495 10.01 9.495 9 10 C8.34 9.67 7.68 9.34 7 9 C7 8.34 7 7.68 7 7 C4.03 7 1.06 7 -2 7 C-2.33 5.68 -2.66 4.36 -3 3 C-1.5625 1.25 -1.5625 1.25 0 0 Z"/>
<path transform="translate(828,407)" fill="#1D3E5C" d="M0 0 C0.33 0 0.66 0 1 0 C3.06142435 10.41755521 3.21367504 20.42308574 3 31 C2.67 31 2.34 31 2 31 C1.67 28.69 1.34 26.38 1 24 C0.67 24 0.34 24 0 24 C0 16.08 0 8.16 0 0 Z"/>
<path transform="translate(669,345)" fill="#2C5B79" d="M0 0 C-2.38196875 2.68855878 -4.83838818 4.07704646 -8.0625 5.625 C-8.94035156 6.05039062 -9.81820312 6.47578125 -10.72265625 6.9140625 C-11.84994141 7.45160156 -11.84994141 7.45160156 -13 8 C-13.99 8.495 -13.99 8.495 -15 9 C-15.66 8.67 -16.32 8.34 -17 8 C-17 7.34 -17 6.68 -17 6 C-11.58697782 1.16336444 -7.19207196 -0.78458967 0 0 Z"/>
<path transform="translate(744,292)" fill="#D78D4C" d="M0 0 C-1.06541016 0.30744141 -1.06541016 0.30744141 -2.15234375 0.62109375 C-3.53099609 1.02521484 -3.53099609 1.02521484 -4.9375 1.4375 C-6.31228516 1.83775391 -6.31228516 1.83775391 -7.71484375 2.24609375 C-9.9402493 2.79026051 -9.9402493 2.79026051 -11 4 C-13.86267567 4.07325168 -16.700719 4.09238205 -19.5625 4.0625 C-20.36880859 4.05798828 -21.17511719 4.05347656 -22.00585938 4.04882812 C-24.00393756 4.03700518 -26.00197783 4.01906914 -28 4 C-28 3.67 -28 3.34 -28 3 C-24.08559007 2.29921164 -20.168211 1.61668646 -16.25 0.9375 C-14.58324219 0.63875977 -14.58324219 0.63875977 -12.8828125 0.33398438 C-11.81289063 0.15029297 -10.74296875 -0.03339844 -9.640625 -0.22265625 C-8.16384277 -0.48187866 -8.16384277 -0.48187866 -6.65722656 -0.74633789 C-4.09865957 -0.99058184 -2.41709608 -0.80486291 0 0 Z"/>
<path transform="translate(713,274)" fill="#214F6E" d="M0 0 C0.66 1.32 1.32 2.64 2 4 C-0.12254855 4.38863565 -2.24816828 4.76053209 -4.375 5.125 C-6.15003906 5.43824219 -6.15003906 5.43824219 -7.9609375 5.7578125 C-8.96382812 5.83773438 -9.96671875 5.91765625 -11 6 C-11.66 5.34 -12.32 4.68 -13 4 C-12.34 4 -11.68 4 -11 4 C-10.67 3.01 -10.34 2.02 -10 1 C-6.7 0.67 -3.4 0.34 0 0 Z"/>
<path transform="translate(774.5625,265.8125)" fill="#234965" d="M0 0 C1.17755859 -0.02126953 1.17755859 -0.02126953 2.37890625 -0.04296875 C4.4375 0.1875 4.4375 0.1875 6.4375 2.1875 C-1.86816989 4.20040353 -10.05424287 4.75641497 -18.5625 5.1875 C-18.5625 4.8575 -18.5625 4.5275 -18.5625 4.1875 C-13.1175 3.6925 -13.1175 3.6925 -7.5625 3.1875 C-7.5625 2.5275 -7.5625 1.8675 -7.5625 1.1875 C-4.76092552 0.25364184 -2.90802197 0.02395405 0 0 Z"/>
<path transform="translate(714,444)" fill="#DA7F31" d="M0 0 C0.66 0.33 1.32 0.66 2 1 C0.64002446 7.04433574 -2.85651794 10.63494136 -7 15 C-7.99 14.67 -8.98 14.34 -10 14 C-9.67 13.01 -9.34 12.02 -9 11 C-8.34 11 -7.68 11 -7 11 C-7 10.34 -7 9.68 -7 9 C-6.34 9 -5.68 9 -5 9 C-5 8.01 -5 7.02 -5 6 C-3.70896357 4.6256709 -2.3743291 3.29103643 -1 2 C-0.67 1.34 -0.34 0.68 0 0 Z"/>
<path transform="translate(834,321)" fill="#47617A" d="M0 0 C0.33 0 0.66 0 1 0 C1 7.92 1 15.84 1 24 C1.33 24 1.66 24 2 24 C2.042721 25.66611905 2.04063832 27.33382885 2 29 C1.67 29.33 1.34 29.66 1 30 C0.76924918 31.34747084 0.58846937 32.70377565 0.4375 34.0625 C0.2209375 36.0115625 0.2209375 36.0115625 0 38 C-0.33 38 -0.66 38 -1 38 C-1.02487594 33.71330142 -1.04294275 29.42664205 -1.05493164 25.13989258 C-1.05993417 23.68415596 -1.0667383 22.22842429 -1.07543945 20.77270508 C-1.087685 18.67007212 -1.09326923 16.56750609 -1.09765625 14.46484375 C-1.10289307 13.202771 -1.10812988 11.94069824 -1.11352539 10.64038086 C-1.00072599 7.02328018 -0.58112682 3.56920449 0 0 Z"/>
<path transform="translate(692,322)" fill="#28516B" d="M0 0 C2.99220268 1.36370299 5.29026529 2.94908083 7.75 5.125 C8.67039062 5.93324219 8.67039062 5.93324219 9.609375 6.7578125 C10.06828125 7.16773438 10.5271875 7.57765625 11 8 C9.75023244 11.65316671 9.32901247 12.78065836 6 15 C6.33 13.02 6.66 11.04 7 9 C6.34 9 5.68 9 5 9 C4.67 8.34 4.34 7.68 4 7 C3.34 6.67 2.68 6.34 2 6 C2.33 5.01 2.66 4.02 3 3 C2.01 3 1.02 3 0 3 C0 2.01 0 1.02 0 0 Z"/>
<path transform="translate(663,504)" fill="#D6863D" d="M0 0 C1.32 0.33 2.64 0.66 4 1 C2.26105966 3.15568639 0.50997904 5.29910308 -1.25 7.4375 C-1.98669922 8.35499023 -1.98669922 8.35499023 -2.73828125 9.29101562 C-3.22167969 9.87431641 -3.70507812 10.45761719 -4.203125 11.05859375 C-4.64301758 11.59798584 -5.08291016 12.13737793 -5.53613281 12.69311523 C-7.29409148 14.26255365 -8.70387398 14.60226281 -11 15 C-11 14.34 -11 13.68 -11 13 C-10.01 13 -9.02 13 -8 13 C-7.67 11.35 -7.34 9.7 -7 8 C-6.01 7.67 -5.02 7.34 -4 7 C-3.67 6.01 -3.34 5.02 -3 4 C-2.01 4 -1.02 4 0 4 C0 2.68 0 1.36 0 0 Z"/>
<path transform="translate(720,323)" fill="#E57F2A" d="M0 0 C3.42430894 1.23655601 6.40112619 2.40112619 9 5 C9.44066251 8.17489373 9.29686795 9.56605782 7.46875 12.23828125 C6.8190625 12.92277344 6.169375 13.60726563 5.5 14.3125 C4.8503125 15.00988281 4.200625 15.70726562 3.53125 16.42578125 C2.77328125 17.20501953 2.77328125 17.20501953 2 18 C2 17.01 2 16.02 2 15 C2.495 14.566875 2.99 14.13375 3.5 13.6875 C5.25043847 12.01464929 5.25043847 12.01464929 5.5 9.1875 C4.81478329 4.81924348 3.02113416 3.17219087 0 0 Z"/>
<path transform="translate(820,280)" fill="#CD8F56" d="M0 0 C-0.33 7.92 -0.66 15.84 -1 24 C-1.33 24 -1.66 24 -2 24 C-2 16.74 -2 9.48 -2 2 C-5.3 2 -8.6 2 -12 2 C-12 1.67 -12 1.34 -12 1 C-7.7345163 -0.03405665 -4.62683027 0 0 0 Z"/>
<path transform="translate(839,260)" fill="#0E2F4E" d="M0 0 C0.66 0 1.32 0 2 0 C2.19448477 2.12437212 2.38038289 4.24953191 2.5625 6.375 C2.66691406 7.55835938 2.77132812 8.74171875 2.87890625 9.9609375 C3 13 3 13 2 15 C1.34 15 0.68 15 0 15 C0 17.97 0 20.94 0 24 C-0.33 24 -0.66 24 -1 24 C-1.16677223 15.95787245 -0.6466598 8.01396246 0 0 Z"/>
<path transform="translate(776,378)" fill="#FDEBC5" d="M0 0 C4.28553996 0.47957233 6.76931405 3.2187222 9.75 6.0625 C10.25660156 6.53494141 10.76320313 7.00738281 11.28515625 7.49414062 C12.52949613 8.65630711 13.76558064 9.82730161 15 11 C14.01 11.33 13.02 11.66 12 12 C11.01 11.34 10.02 10.68 9 10 C9 9.34 9 8.68 9 8 C8.360625 7.731875 7.72125 7.46375 7.0625 7.1875 C5 6 5 6 4 3 C1.69 3.33 -0.62 3.66 -3 4 C-2.01 2.68 -1.02 1.36 0 0 Z"/>
<path transform="translate(837,291)" fill="#1D3751" d="M0 0 C0.33 0 0.66 0 1 0 C1.33 5.28 1.66 10.56 2 16 C1.67 16 1.34 16 1 16 C0.67 18.64 0.34 21.28 0 24 C-0.33 24 -0.66 24 -1 24 C-1.02887236 20.18751574 -1.04675492 16.3750593 -1.0625 12.5625 C-1.07087891 11.47388672 -1.07925781 10.38527344 -1.08789062 9.26367188 C-1.09111328 8.22919922 -1.09433594 7.19472656 -1.09765625 6.12890625 C-1.10289307 5.17056885 -1.10812988 4.21223145 -1.11352539 3.22485352 C-1 1 -1 1 0 0 Z"/>
<path transform="translate(744,415)" fill="#FBE6C5" d="M0 0 C0.33 0.66 0.66 1.32 1 2 C-0.57283563 5.61752196 -2.25051942 9.1405402 -5 12 C-6.32 12 -7.64 12 -9 12 C-9.33 12.99 -9.66 13.98 -10 15 C-10.66 14.67 -11.32 14.34 -12 14 C-8.04 9.38 -4.08 4.76 0 0 Z"/>
<path transform="translate(663,404)" fill="#D9863E" d="M0 0 C0.33 0.99 0.66 1.98 1 3 C0.360625 3.5775 -0.27875 4.155 -0.9375 4.75 C-3.07182998 7.07835998 -3.33389185 8.05009248 -4 11 C-5.4375 12.75 -5.4375 12.75 -7 14 C-7.66 14 -8.32 14 -9 14 C-9 14.66 -9 15.32 -9 16 C-9.66 16 -10.32 16 -11 16 C-10.58269656 11.14329827 -8.1999142 8.54863925 -4.9375 5.1875 C-4.46505859 4.68541016 -3.99261719 4.18332031 -3.50585938 3.66601562 C-2.34591548 2.43577211 -1.17411185 1.21672935 0 0 Z"/>
<path transform="translate(795,394)" fill="#FDECCA" d="M0 0 C5.03681497 3.07122864 8.94510767 6.72916666 13 11 C12.01 11.495 12.01 11.495 11 12 C10.01 11.67 9.02 11.34 8 11 C8 10.01 8 9.02 8 8 C6.68 8 5.36 8 4 8 C4 7.34 4 6.68 4 6 C2.68 5.67 1.36 5.34 0 5 C0 3.35 0 1.7 0 0 Z"/>
<path transform="translate(719,444)" fill="#FBDEB5" d="M0 0 C0.75 1.75 0.75 1.75 1 4 C-0.8125 6.25 -0.8125 6.25 -3 8 C-3.66 8 -4.32 8 -5 8 C-5 8.99 -5 9.98 -5 11 C-5.928125 11.12375 -5.928125 11.12375 -6.875 11.25 C-9.18437567 11.81258459 -9.18437567 11.81258459 -10.25 14.0625 C-10.4975 14.701875 -10.745 15.34125 -11 16 C-11.66 15.67 -12.32 15.34 -13 15 C-12.39671875 14.33613281 -11.7934375 13.67226563 -11.171875 12.98828125 C-10.37265625 12.10527344 -9.5734375 11.22226562 -8.75 10.3125 C-7.96109375 9.44238281 -7.1721875 8.57226562 -6.359375 7.67578125 C-4.15500436 5.17579137 -2.05866059 2.62054272 0 0 Z"/>
<path transform="translate(796,394)" fill="#D0975D" d="M0 0 C4.35108463 1.31851049 7.01711334 3.60276987 10.25390625 6.66015625 C12.16957134 8.1301185 13.64278312 8.58220007 16 9 C16 10.65 16 12.3 16 14 C12.40155551 12.48357123 10.14286857 10.35026558 7.4375 7.5625 C6.67308594 6.78003906 5.90867187 5.99757813 5.12109375 5.19140625 C4.42113281 4.46824219 3.72117187 3.74507813 3 3 C2.00219538 1.99780943 1.00319998 0.99678975 0 0 Z"/>
<path transform="translate(626,388)" fill="#2D5B7B" d="M0 0 C0.66 0 1.32 0 2 0 C3.05404945 3.98196457 2.84098656 6.98195309 2 11 C1.67 11 1.34 11 1 11 C0.67 13.97 0.34 16.94 0 20 C-0.33 20 -0.66 20 -1 20 C-1.02703562 17.41659616 -1.04685611 14.83347692 -1.0625 12.25 C-1.07087891 11.52039063 -1.07925781 10.79078125 -1.08789062 10.0390625 C-1.10391684 6.51329442 -0.95292713 3.38965084 0 0 Z"/>
<path transform="translate(668,303)" fill="#1D4E71" d="M0 0 C2.125 -0.375 2.125 -0.375 5 0 C7.37227856 1.70004037 9.37745218 3.56896616 11 6 C11 7.32 11 8.64 11 10 C10.01 10.33 9.02 10.66 8 11 C7 6.25 7 6.25 7 4 C4.69 3.67 2.38 3.34 0 3 C0 2.01 0 1.02 0 0 Z"/>
<path transform="translate(781,380)" fill="#D28E4B" d="M0 0 C1.98 0.66 3.96 1.32 6 2 C6 2.99 6 3.98 6 5 C6.53625 5.226875 7.0725 5.45375 7.625 5.6875 C10.78500863 7.43382056 13.2676983 9.6402849 16 12 C15.34 12.66 14.68 13.32 14 14 C13.57589844 13.56429688 13.15179687 13.12859375 12.71484375 12.6796875 C9.05592307 8.96447573 5.31400922 5.47569109 1.28515625 2.1640625 C0.64900391 1.58785156 0.64900391 1.58785156 0 1 C0 0.67 0 0.34 0 0 Z"/>
<path transform="translate(713,341)" fill="#FDEBCB" d="M0 0 C0.99 0.33 1.98 0.66 3 1 C1.55575365 4.23861303 -0.25772247 6.61969163 -2.625 9.25 C-3.25664063 9.95640625 -3.88828125 10.6628125 -4.5390625 11.390625 C-5.02117188 11.92171875 -5.50328125 12.4528125 -6 13 C-7 10 -7 10 -6 7 C-5.01 7 -4.02 7 -3 7 C-2.67 5.68 -2.34 4.36 -2 3 C-1.34 3 -0.68 3 0 3 C0 2.01 0 1.02 0 0 Z"/>
<path transform="translate(725,332)" fill="#D28C4B" d="M0 0 C0.33 0.99 0.66 1.98 1 3 C-0.24839573 4.41808059 -1.49879221 5.83439995 -2.75 7.25 C-3.44609375 8.03890625 -4.1421875 8.8278125 -4.859375 9.640625 C-6.84586916 11.83011856 -8.89101308 13.92901285 -11 16 C-11.66 15.67 -12.32 15.34 -13 15 C-12.39671875 14.33613281 -11.7934375 13.67226563 -11.171875 12.98828125 C-10.37265625 12.10527344 -9.5734375 11.22226562 -8.75 10.3125 C-7.96109375 9.44238281 -7.1721875 8.57226562 -6.359375 7.67578125 C-4.15500436 5.17579137 -2.05866059 2.62054272 0 0 Z"/>
<path transform="translate(774,406)" fill="#244359" d="M0 0 C0.66 0 1.32 0 2 0 C1.875 2.75 1.875 2.75 1 6 C-2.0625 8.375 -2.0625 8.375 -5 10 C-5.66 9.34 -6.32 8.68 -7 8 C-5.88200014 6.66079162 -4.75538103 5.32877444 -3.625 4 C-2.68527344 2.88625 -2.68527344 2.88625 -1.7265625 1.75 C-1.15679688 1.1725 -0.58703125 0.595 0 0 Z"/>
<path transform="translate(731,430)" fill="#FBE4C3" d="M0 0 C0.33 1.32 0.66 2.64 1 4 C-0.3125 5.75 -0.3125 5.75 -2 7 C-2.66 7 -3.32 7 -4 7 C-4.33 8.32 -4.66 9.64 -5 11 C-5.99 11 -6.98 11 -8 11 C-8.33 11.99 -8.66 12.98 -9 14 C-9.66 13.67 -10.32 13.34 -11 13 C-7.37 8.71 -3.74 4.42 0 0 Z"/>
<path transform="translate(734,423)" fill="#D58035" d="M0 0 C0.99 0.33 1.98 0.66 3 1 C1.57282151 2.67551353 0.13291518 4.34019309 -1.3125 6 C-2.51326172 7.3921875 -2.51326172 7.3921875 -3.73828125 8.8125 C-6 11 -6 11 -9 11 C-9 10.34 -9 9.68 -9 9 C-8.34 9 -7.68 9 -7 9 C-7 8.34 -7 7.68 -7 7 C-6.34 7 -5.68 7 -5 7 C-5 6.01 -5 5.02 -5 4 C-4.360625 3.71125 -3.72125 3.4225 -3.0625 3.125 C-0.84793921 2.17176549 -0.84793921 2.17176549 0 0 Z"/>
<path transform="translate(684,338)" fill="#1C4868" d="M0 0 C4.29 0 8.58 0 13 0 C12.67 0.99 12.34 1.98 12 3 C10.37581255 3.08090971 8.75048255 3.13914995 7.125 3.1875 C5.76761719 3.23970703 5.76761719 3.23970703 4.3828125 3.29296875 C3.20332031 3.14794922 3.20332031 3.14794922 2 3 C1.34 2.01 0.68 1.02 0 0 Z"/>
<path transform="translate(791,282)" fill="#FFFAE5" d="M0 0 C-3.72066472 2.48044315 -6.86540474 2.44381173 -11.1875 2.625 C-11.93708984 2.66367187 -12.68667969 2.70234375 -13.45898438 2.7421875 C-15.30559199 2.83628216 -17.1527619 2.91922319 -19 3 C-16.32623043 0.32623043 -14.33654001 0.36714587 -10.625 -0.1875 C-8.91183594 -0.45626953 -8.91183594 -0.45626953 -7.1640625 -0.73046875 C-4.3697362 -0.96850395 -2.61199462 -0.90712129 0 0 Z"/>
<path transform="translate(836,257)" fill="#405E7B" d="M0 0 C0 0.66 0 1.32 0 2 C0.99 2 1.98 2 3 2 C3 6.95 3 11.9 3 17 C2.67 17 2.34 17 2 17 C2 12.38 2 7.76 2 3 C-2.29 2.67 -6.58 2.34 -11 2 C-11 1.67 -11 1.34 -11 1 C-7.27569643 0.30710631 -3.78916254 -0.11144596 0 0 Z"/>
<path transform="translate(772,382)" fill="#FAE4C1" d="M0 0 C2 2 2 2 2 5 C0.35 5.33 -1.3 5.66 -3 6 C-3 6.99 -3 7.98 -3 9 C-4.32 9.33 -5.64 9.66 -7 10 C-7 10.66 -7 11.32 -7 12 C-7.66 11.67 -8.32 11.34 -9 11 C-6.03 7.37 -3.06 3.74 0 0 Z"/>
<path transform="translate(699,362)" fill="#D38A48" d="M0 0 C0.33 0.99 0.66 1.98 1 3 C0.54625 3.4125 0.0925 3.825 -0.375 4.25 C-2.07727745 5.89689928 -2.07727745 5.89689928 -2.875 7.9375 C-4.3856157 10.70696212 -6.48652977 12.14796931 -9 14 C-9.66 13.67 -10.32 13.34 -11 13 C-7.37 8.71 -3.74 4.42 0 0 Z"/>
<path transform="translate(705,358)" fill="#E67B25" d="M0 0 C0 0.99 0 1.98 0 3 C-1 4 -2 5 -3 6 C-3.433125 7.2065625 -3.433125 7.2065625 -3.875 8.4375 C-5.28477464 11.64865334 -7.17714301 12.99428583 -10 15 C-7.9667557 8.27465346 -5.73122496 4.18224524 0 0 Z"/>
<path transform="translate(762,394)" fill="#FBE6C2" d="M0 0 C0.33 0.66 0.66 1.32 1 2 C0 5 0 5 -2 6 C-2.433125 6.804375 -2.86625 7.60875 -3.3125 8.4375 C-5.27286429 11.41434947 -6.64662411 12.00305041 -10 13 C-7.02480663 8.30834891 -3.68606635 4.15296809 0 0 Z"/>
<path transform="translate(628,377)" fill="#1E4F6F" d="M0 0 C0.66 0 1.32 0 2 0 C2 0.66 2 1.32 2 2 C2.66 2 3.32 2 4 2 C3.71758359 3.46015291 3.42373386 4.91809793 3.125 6.375 C2.96257813 7.18710937 2.80015625 7.99921875 2.6328125 8.8359375 C2 11 2 11 0 13 C0 8.71 0 4.42 0 0 Z"/>
<path transform="translate(827,422)" fill="#2D4E6A" d="M0 0 C0.33 0 0.66 0 1 0 C1.33 1.65 1.66 3.3 2 5 C2.33 5 2.66 5 3 5 C2.67 10.61 2.34 16.22 2 22 C1.67 22 1.34 22 1 22 C0.00137301 14.63512596 -0.10331031 7.42686315 0 0 Z"/>
<path transform="translate(751,402)" fill="#D58A46" d="M0 0 C0.66 0 1.32 0 2 0 C2.33 0.99 2.66 1.98 3 3 C-0.33333333 6.33333333 -3.66666667 9.66666667 -7 13 C-6.67 11.02 -6.34 9.04 -6 7 C-5.01 7 -4.02 7 -3 7 C-1.79371992 4.66785852 -0.8345262 2.50357861 0 0 Z"/>
<path transform="translate(675,390)" fill="#D58D4A" d="M0 0 C0.33 0.99 0.66 1.98 1 3 C-2.3 6.63 -5.6 10.26 -9 14 C-9.66 13.67 -10.32 13.34 -11 13 C-7.37 8.71 -3.74 4.42 0 0 Z"/>
<path transform="translate(687,376)" fill="#D38C49" d="M0 0 C0.33 0.99 0.66 1.98 1 3 C-2.3 6.63 -5.6 10.26 -9 14 C-9.66 13.67 -10.32 13.34 -11 13 C-7.37 8.71 -3.74 4.42 0 0 Z"/>
<path transform="translate(831,360)" fill="#B4C5D1" d="M0 0 C0.33 0 0.66 0 1 0 C0.67 6.6 0.34 13.2 0 20 C-0.33 20 -0.66 20 -1 20 C-1.22295635 17.60472566 -1.42874063 15.20998659 -1.625 12.8125 C-1.68945312 12.13896484 -1.75390625 11.46542969 -1.8203125 10.77148438 C-2.14362111 6.62909282 -1.89095265 3.71694891 0 0 Z"/>
<path transform="translate(681,344)" fill="#CEE5ED" d="M0 0 C-2.97 0.66 -5.94 1.32 -9 2 C-9 2.66 -9 3.32 -9 4 C-11.95664519 5.4783226 -14.74229737 5.06032783 -18 5 C-15.17770487 3.11846991 -12.72109829 1.99965295 -9.5625 0.8125 C-8.61503906 0.44769531 -7.66757812 0.08289063 -6.69140625 -0.29296875 C-4 -1 -4 -1 0 0 Z"/>
<path transform="translate(815,436)" fill="#2F4E65" d="M0 0 C3.21043882 1.38188453 5.04936365 2.92421903 7.25 5.625 C8.03117188 6.57246094 8.03117188 6.57246094 8.828125 7.5390625 C9.40820312 8.26222656 9.40820312 8.26222656 10 9 C9.01 9.33 8.02 9.66 7 10 C5.82739389 8.71372289 4.6620717 7.42080217 3.5 6.125 C2.8503125 5.40570313 2.200625 4.68640625 1.53125 3.9453125 C0 2 0 2 0 0 Z"/>
<path transform="translate(665,296)" fill="#DDF1F6" d="M0 0 C3.15330554 0.60694155 5.18888867 1.6416665 7.75 3.5625 C8.67039062 4.24505859 8.67039062 4.24505859 9.609375 4.94140625 C10.29773438 5.46541016 10.29773438 5.46541016 11 6 C10.67 7.32 10.34 8.64 10 10 C6.66666667 6.66666667 3.33333333 3.33333333 0 0 Z"/>
<path transform="translate(654,285)" fill="#36637E" d="M0 0 C2.31 0 4.62 0 7 0 C6.67 0.66 6.34 1.32 6 2 C4.68 2 3.36 2 2 2 C3.65 3.98 5.3 5.96 7 8 C5.68 8 4.36 8 3 8 C1.25 6.25 1.25 6.25 0 4 C0 2.68 0 1.36 0 0 Z"/>
<path transform="translate(751.625,268.5625)" fill="#285673" d="M0 0 C2.375 0.4375 2.375 0.4375 5.375 3.4375 C-1.06 3.9325 -1.06 3.9325 -7.625 4.4375 C-2.625 0.4375 -2.625 0.4375 0 0 Z"/>
<path transform="translate(661,294)" fill="#325C75" d="M0 0 C2.99220268 1.36370299 5.29026529 2.94908083 7.75 5.125 C8.67039062 5.93324219 8.67039062 5.93324219 9.609375 6.7578125 C10.06828125 7.16773438 10.5271875 7.57765625 11 8 C10.34 8.66 9.68 9.32 9 10 C8.60167969 9.57847656 8.20335937 9.15695312 7.79296875 8.72265625 C7.26316406 8.17480469 6.73335937 7.62695312 6.1875 7.0625 C5.66542969 6.51722656 5.14335938 5.97195313 4.60546875 5.41015625 C2.94187802 3.76480908 2.94187802 3.76480908 0 3 C0 2.01 0 1.02 0 0 Z"/>
<path transform="translate(775,402)" fill="#DFEDF3" d="M0 0 C0.99 0.33 1.98 0.66 3 1 C0.36 3.97 -2.28 6.94 -5 10 C-5.33 9.01 -5.66 8.02 -6 7 C-4.78515625 5.17578125 -4.78515625 5.17578125 -3.0625 3.3125 C-2.49660156 2.68988281 -1.93070313 2.06726563 -1.34765625 1.42578125 C-0.90292969 0.95527344 -0.45820312 0.48476563 0 0 Z"/>
<path transform="translate(764,389)" fill="#D28843" d="M0 0 C0.66 0.33 1.32 0.66 2 1 C-0.97 4.63 -3.94 8.26 -7 12 C-7.33 11.01 -7.66 10.02 -8 9 C-7.34 9 -6.68 9 -6 9 C-5.67 7.35 -5.34 5.7 -5 4 C-4.01 4 -3.02 4 -2 4 C-1.34 2.68 -0.68 1.36 0 0 Z"/>
<path transform="translate(658,352)" fill="#E9F7FB" d="M0 0 C0 2 0 2 -1.609375 3.65625 C-2.31578125 4.2646875 -3.0221875 4.873125 -3.75 5.5 C-4.44609375 6.1084375 -5.1421875 6.716875 -5.859375 7.34375 C-7.84460792 8.87976963 -9.71872045 9.9723966 -12 11 C-11.09066991 9.72390677 -10.17217147 8.45434447 -9.25 7.1875 C-8.73953125 6.47980469 -8.2290625 5.77210938 -7.703125 5.04296875 C-3.49904398 0 -3.49904398 0 0 0 Z"/>
<path transform="translate(669,345)" fill="#234F6C" d="M0 0 C-2.3500189 2.72107452 -4.55674975 3.96702492 -8 5 C-8.99 4.67 -9.98 4.34 -11 4 C-10.34 3.67 -9.68 3.34 -9 3 C-9.33 2.34 -9.66 1.68 -10 1 C-6.78548731 -0.60725635 -3.56387464 -0.05748185 0 0 Z"/>
<path transform="translate(666,505)" fill="#FAE6C4" d="M0 0 C0.33 0 0.66 0 1 0 C1.20086443 3.71599191 1.1519437 4.77208445 -1 8 C-3.625 8.1875 -3.625 8.1875 -6 8 C-5.02471263 6.66382648 -4.04466681 5.3311249 -3.0625 4 C-2.24458984 2.88625 -2.24458984 2.88625 -1.41015625 1.75 C-0.94480469 1.1725 -0.47945312 0.595 0 0 Z"/>
<path transform="translate(672,495)" fill="#D68942" d="M0 0 C0.99 0.33 1.98 0.66 3 1 C0.69 3.64 -1.62 6.28 -4 9 C-4.33 7.68 -4.66 6.36 -5 5 C-4.34 4.01 -3.68 3.02 -3 2 C-2.01 2 -1.02 2 0 2 C0 1.34 0 0.68 0 0 Z"/>
<path transform="translate(645,353)" fill="#1F4F71" d="M0 0 C1.32 0 2.64 0 4 0 C4 0.66 4 1.32 4 2 C4.66 2.33 5.32 2.66 6 3 C4.625 4.5 4.625 4.5 3 6 C2.34 6 1.68 6 1 6 C1 5.34 1 4.68 1 4 C0.34 4 -0.32 4 -1 4 C-0.67 2.68 -0.34 1.36 0 0 Z"/>
<path transform="translate(702,332)" fill="#C5DAE3" d="M0 0 C0.33 0.66 0.66 1.32 1 2 C-2.75 7.75 -2.75 7.75 -5 10 C-7.68839385 10.26991906 -10.29141936 10.08737357 -13 10 C-13 9.67 -13 9.34 -13 9 C-11.96875 9 -10.9375 9 -9.875 9 C-7.12245391 8.64682199 -6.16715081 8.1715018 -4.19921875 6.15234375 C-2.71523275 4.14418131 -1.31840746 2.12007646 0 0 Z"/>
<path transform="translate(701,306)" fill="#D28C4B" d="M0 0 C4.75 1.875 4.75 1.875 7 3 C7 3.66 7 4.32 7 5 C7.66 5 8.32 5 9 5 C9 5.66 9 6.32 9 7 C9.99 7.33 10.98 7.66 12 8 C11.34 8.66 10.68 9.32 10 10 C6.66666667 6.66666667 3.33333333 3.33333333 0 0 Z"/>
<path transform="translate(771,414)" fill="#113B59" d="M0 0 C0 3 0 3 -1 6 C-1.99 6.33 -2.98 6.66 -4 7 C-4.66 5.68 -5.32 4.36 -6 3 C-4 2 -2 1 0 0 Z"/>
<path transform="translate(827,435)" fill="#133A58" d="M0 0 C0.33 0 0.66 0 1 0 C1.06058594 0.62648438 1.12117187 1.25296875 1.18359375 1.8984375 C1.26738281 2.71570313 1.35117187 3.53296875 1.4375 4.375 C1.55931641 5.59316406 1.55931641 5.59316406 1.68359375 6.8359375 C1.89090114 9.04272805 1.89090114 9.04272805 3 11 C1.02 11.33 -0.96 11.66 -3 12 C-3 11.34 -3 10.68 -3 10 C-2.01 10 -1.02 10 0 10 C0 6.7 0 3.4 0 0 Z"/>
<path transform="translate(800,424)" fill="#27475D" d="M0 0 C3.24208567 0.35049575 4.61527704 0.56221181 6.8125 3.0625 C7.204375 3.701875 7.59625 4.34125 8 5 C4 5 4 5 2 4 C2 3.01 2 2.02 2 1 C1.34 0.67 0.68 0.34 0 0 Z"/>
<path transform="translate(751,407)" fill="#FAE7C7" d="M0 0 C1 2 1 2 0.9375 4 C0 6 0 6 -3.0625 7.25 C-4.031875 7.4975 -5.00125 7.745 -6 8 C-4.26440562 4.942048 -2.61527381 2.36620011 0 0 Z"/>
<path transform="translate(686,372)" fill="#FEF9E4" d="M0 0 C0.66 0.33 1.32 0.66 2 1 C0.68 3.31 -0.64 5.62 -2 8 C-2.99 8 -3.98 8 -5 8 C-5.33 8.66 -5.66 9.32 -6 10 C-5.6875 8.0625 -5.6875 8.0625 -5 6 C-4.01 5.67 -3.02 5.34 -2 5 C-1.33820153 3.01954441 -1.33820153 3.01954441 -1 1 C-0.67 0.67 -0.34 0.34 0 0 Z"/>
<path transform="translate(674,341)" fill="#2C5771" d="M0 0 C3.63 0 7.26 0 11 0 C7.80107719 1.5994614 5.64537424 2.42595236 2.25 3.125 C1.05117188 3.37636719 1.05117188 3.37636719 -0.171875 3.6328125 C-0.77515625 3.75398438 -1.3784375 3.87515625 -2 4 C-1.34 2.68 -0.68 1.36 0 0 Z"/>
<path transform="translate(829,392)" fill="#2C4863" d="M0 0 C0.33 0 0.66 0 1 0 C1.06058594 0.60328125 1.12117187 1.2065625 1.18359375 1.828125 C1.26738281 2.62734375 1.35117187 3.4265625 1.4375 4.25 C1.51871094 5.03890625 1.59992187 5.8278125 1.68359375 6.640625 C1.93490397 8.99537346 1.93490397 8.99537346 2.66015625 11.171875 C2.77230469 11.77515625 2.88445313 12.3784375 3 13 C2.34 13.66 1.68 14.32 1 15 C-0.09506492 11.71480525 -0.09960608 9.26336585 -0.0625 5.8125 C-0.05347656 4.72582031 -0.04445313 3.63914062 -0.03515625 2.51953125 C-0.02355469 1.68808594 -0.01195312 0.85664063 0 0 Z"/>
<path transform="translate(720,323)" fill="#DB904A" d="M0 0 C4.75 1.875 4.75 1.875 7 3 C7.625 6.0625 7.625 6.0625 8 9 C7.34 9 6.68 9 6 9 C4.95355934 7.36209288 3.9601817 5.68991979 3 4 C2.01755155 2.65368175 1.02323436 1.31558703 0 0 Z"/>
<path transform="translate(719,444)" fill="#FBE9CB" d="M0 0 C0.75 1.75 0.75 1.75 1 4 C-0.9375 6.25 -0.9375 6.25 -3 8 C-3.33 7.01 -3.66 6.02 -4 5 C-2.0625 2.3125 -2.0625 2.3125 0 0 Z"/>
<path transform="translate(693,298)" fill="#FCEBCE" d="M0 0 C2.64752004 2.57784846 4.94432065 4.91648098 7 8 C3.76912579 7.44295272 1.97638863 6.66812465 0 4 C0 2.68 0 1.36 0 0 Z"/>
<path transform="translate(664,287)" fill="#D1EDF3" d="M0 0 C-1.32 0.33 -2.64 0.66 -4 1 C-4 1.99 -4 2.98 -4 4 C-5.32 3.34 -6.64 2.68 -8 2 C-8 1.34 -8 0.68 -8 0 C-4.94736336 -0.98120464 -3.05263664 -0.98120464 0 0 Z"/>
<path transform="translate(801,428)" fill="#0F3959" d="M0 0 C2.16874252 0.50603992 3.99967627 0.99983813 6 2 C6 2.66 6 3.32 6 4 C4.02 4 2.04 4 0 4 C0 2.68 0 1.36 0 0 Z"/>
<path transform="translate(800,395)" fill="#E57F29" d="M0 0 C2.475 0.99 2.475 0.99 5 2 C5 2.66 5 3.32 5 4 C6.32 4 7.64 4 9 4 C9 4.66 9 5.32 9 6 C5.32579134 5.69381595 4.21864487 5.24228216 1.6875 2.4375 C1.130625 1.633125 0.57375 0.82875 0 0 Z"/>
<path transform="translate(758,394)" fill="#DB7D2C" d="M0 0 C0.33 0.66 0.66 1.32 1 2 C0.67 2.66 0.34 3.32 0 4 C-0.66 4 -1.32 4 -2 4 C-2.12375 4.804375 -2.2475 5.60875 -2.375 6.4375 C-2.58125 7.283125 -2.7875 8.12875 -3 9 C-3.99 9.495 -3.99 9.495 -5 10 C-5 8.68 -5 7.36 -5 6 C-4.34 6 -3.68 6 -3 6 C-2.87625 5.38125 -2.7525 4.7625 -2.625 4.125 C-2 2 -2 2 0 0 Z"/>
<path transform="translate(656,519)" fill="#FCF4E2" d="M0 0 C0.33 0.99 0.66 1.98 1 3 C-0.75 4.5625 -0.75 4.5625 -3 6 C-4.32 5.67 -5.64 5.34 -7 5 C-4.69 3.35 -2.38 1.7 0 0 Z"/>
<path transform="translate(742,415)" fill="#D18744" d="M0 0 C0.66 0.33 1.32 0.66 2 1 C0.02 3.31 -1.96 5.62 -4 8 C-4.33 7.01 -4.66 6.02 -5 5 C-3.35 3.35 -1.7 1.7 0 0 Z"/>
<path transform="translate(766,384)" fill="#DC7F30" d="M0 0 C0.66 0.33 1.32 0.66 2 1 C1.8125 2.875 1.8125 2.875 1 5 C-1.5625 6.25 -1.5625 6.25 -4 7 C-2.79618552 4.50638429 -1.54571278 2.31856917 0 0 Z"/>
<path transform="translate(774,376)" fill="#DC893F" d="M0 0 C1.65 0 3.3 0 5 0 C5.66 1.32 6.32 2.64 7 4 C6.236875 3.835 5.47375 3.67 4.6875 3.5 C1.96403764 2.90854604 1.96403764 2.90854604 -1 3 C-0.67 2.01 -0.34 1.02 0 0 Z"/>
<path transform="translate(706,354)" fill="#D38B48" d="M0 0 C0.33 1.32 0.66 2.64 1 4 C-0.65 5.32 -2.3 6.64 -4 8 C-4.66 7.67 -5.32 7.34 -6 7 C-4.02 4.69 -2.04 2.38 0 0 Z"/>
<path transform="translate(701,302)" fill="#E38230" d="M0 0 C3.82946843 1.45255699 5.12050295 3.42895561 7 7 C2.25 5.125 2.25 5.125 0 4 C0 2.68 0 1.36 0 0 Z"/>
<path transform="translate(738,275)" fill="#BDD3DD" d="M0 0 C0 0.33 0 0.66 0 1 C-0.78375 1.12375 -1.5675 1.2475 -2.375 1.375 C-5.14057822 1.79117993 -5.14057822 1.79117993 -7 4 C-7 3.34 -7 2.68 -7 2 C-8.98 2 -10.96 2 -13 2 C-13 1.67 -13 1.34 -13 1 C-8.59085217 -0.10228696 -4.51617599 -0.07654536 0 0 Z"/>
<path transform="translate(663,404)" fill="#D48F52" d="M0 0 C0.33 0.99 0.66 1.98 1 3 C-0.65 4.65 -2.3 6.3 -4 8 C-4.66 7.67 -5.32 7.34 -6 7 C-4.02 4.69 -2.04 2.38 0 0 Z"/>
<path transform="translate(688,371)" fill="#FCE4BE" d="M0 0 C0.99 0 1.98 0 3 0 C1.60667426 3.36720387 0.0210714 4.9859524 -3 7 C-1.125 2.25 -1.125 2.25 0 0 Z"/>
<path transform="translate(747,271)" fill="#30607E" d="M0 0 C-0.99 1.485 -0.99 1.485 -2 3 C-4.64 2.67 -7.28 2.34 -10 2 C-6.3558226 -0.4294516 -4.28758728 -0.16179575 0 0 Z"/>
<path transform="translate(811,259)" fill="#183B56" d="M0 0 C0.99 0.33 1.98 0.66 3 1 C3 1.66 3 2.32 3 3 C3.99 3.33 4.98 3.66 6 4 C3.36 4 0.72 4 -2 4 C-1.34 2.68 -0.68 1.36 0 0 Z"/>
</svg>